<mxfile host="Electron" modified="2024-06-03T13:59:30.476Z" agent="Mozilla/5.0 (X11; Linux x86_64) AppleWebKit/537.36 (KHTML, like Gecko) draw.io/24.4.6 Chrome/124.0.6367.207 Electron/30.0.6 Safari/537.36" etag="j3zVr7JNa1gRpDrnW_Sj" version="24.4.6" type="device">
  <diagram name="Page-1" id="EgRgewfbIU3oBz2a0reG">
    <mxGraphModel dx="941" dy="581" grid="1" gridSize="10" guides="1" tooltips="1" connect="1" arrows="1" fold="1" page="1" pageScale="1" pageWidth="827" pageHeight="583" math="0" shadow="0">
      <root>
        <mxCell id="0" />
        <mxCell id="1" parent="0" />
        <mxCell id="tkCvJaHhFPC2SJOJf_Uw-39" style="rounded=0;orthogonalLoop=1;jettySize=auto;html=1;exitX=0;exitY=0;exitDx=0;exitDy=0;entryX=0;entryY=1;entryDx=0;entryDy=0;endArrow=none;endFill=0;dashed=1;" edge="1" parent="1" source="tkCvJaHhFPC2SJOJf_Uw-15" target="tkCvJaHhFPC2SJOJf_Uw-4">
          <mxGeometry relative="1" as="geometry" />
        </mxCell>
        <mxCell id="tkCvJaHhFPC2SJOJf_Uw-1" value="CAN frame" style="text;html=1;align=center;verticalAlign=middle;whiteSpace=wrap;rounded=0;fontSize=18;" vertex="1" parent="1">
          <mxGeometry x="20" y="10" width="110" height="30" as="geometry" />
        </mxCell>
        <mxCell id="tkCvJaHhFPC2SJOJf_Uw-12" value="" style="group" vertex="1" connectable="0" parent="1">
          <mxGeometry x="120" y="60" width="480" height="60" as="geometry" />
        </mxCell>
        <mxCell id="tkCvJaHhFPC2SJOJf_Uw-3" value="SOF" style="rounded=0;whiteSpace=wrap;html=1;fontSize=16;" vertex="1" parent="tkCvJaHhFPC2SJOJf_Uw-12">
          <mxGeometry width="40" height="60" as="geometry" />
        </mxCell>
        <mxCell id="tkCvJaHhFPC2SJOJf_Uw-4" value="Identifier" style="rounded=0;whiteSpace=wrap;html=1;fontSize=16;" vertex="1" parent="tkCvJaHhFPC2SJOJf_Uw-12">
          <mxGeometry x="40" width="100" height="60" as="geometry" />
        </mxCell>
        <mxCell id="tkCvJaHhFPC2SJOJf_Uw-5" value="RTR" style="rounded=0;whiteSpace=wrap;html=1;fontSize=16;" vertex="1" parent="tkCvJaHhFPC2SJOJf_Uw-12">
          <mxGeometry x="140" width="40" height="60" as="geometry" />
        </mxCell>
        <mxCell id="tkCvJaHhFPC2SJOJf_Uw-6" value="IDE" style="rounded=0;whiteSpace=wrap;html=1;fontSize=16;" vertex="1" parent="tkCvJaHhFPC2SJOJf_Uw-12">
          <mxGeometry x="180" width="40" height="60" as="geometry" />
        </mxCell>
        <mxCell id="tkCvJaHhFPC2SJOJf_Uw-7" value="r" style="rounded=0;whiteSpace=wrap;html=1;fontSize=16;" vertex="1" parent="tkCvJaHhFPC2SJOJf_Uw-12">
          <mxGeometry x="220" width="40" height="60" as="geometry" />
        </mxCell>
        <mxCell id="tkCvJaHhFPC2SJOJf_Uw-8" value="DLC" style="rounded=0;whiteSpace=wrap;html=1;fontSize=16;" vertex="1" parent="tkCvJaHhFPC2SJOJf_Uw-12">
          <mxGeometry x="260" width="40" height="60" as="geometry" />
        </mxCell>
        <mxCell id="tkCvJaHhFPC2SJOJf_Uw-9" value="Data field" style="rounded=0;whiteSpace=wrap;html=1;fontSize=16;" vertex="1" parent="tkCvJaHhFPC2SJOJf_Uw-12">
          <mxGeometry x="300" width="100" height="60" as="geometry" />
        </mxCell>
        <mxCell id="tkCvJaHhFPC2SJOJf_Uw-11" value="CRC/ACK" style="rounded=0;whiteSpace=wrap;html=1;fontSize=16;" vertex="1" parent="tkCvJaHhFPC2SJOJf_Uw-12">
          <mxGeometry x="400" width="80" height="60" as="geometry" />
        </mxCell>
        <mxCell id="tkCvJaHhFPC2SJOJf_Uw-13" value="Identifier (ID) field" style="text;html=1;align=center;verticalAlign=middle;whiteSpace=wrap;rounded=0;fontSize=18;fillColor=default;fillStyle=solid;gradientColor=none;" vertex="1" parent="1">
          <mxGeometry x="20" y="170" width="150" height="30" as="geometry" />
        </mxCell>
        <mxCell id="tkCvJaHhFPC2SJOJf_Uw-14" value="" style="shape=image;verticalLabelPosition=bottom;labelBackgroundColor=default;verticalAlign=top;aspect=fixed;imageAspect=0;image=data:image/png,iVBORw0KGgoAAAANSUhEUgAAA7cAAADrCAYAAACywGESAAAABHNCSVQICAgIfAhkiAAAABl0RVh0U29mdHdhcmUAZ25vbWUtc2NyZWVuc2hvdO8Dvz4AAAAudEVYdENyZWF0aW9uIFRpbWUATW9uIDAzIEp1biAyMDI0IDAzOjIwOjQ4IFBNIENFU1SYvUxdAAAgAElEQVR4nOzdd1gUV9sG8HtBKQKKVAERwV6T195rFBMbFjBGo2LDEmP0tSQxliSoscWosZcYTewlFjQaMXaNSjTxtSViRRQQBQTpnO8PLubbYQu7y8Kyev+uay/Yqc/Mec6ZPTuzMwohhAARERERERGRGbMwdQBEREREREREhcXOLREREREREZk9dm6JiIiIiIjI7LFzS0RERERERGaPnVsiIiIiIiIye+zcEhERERERkdlj55aIiIiIiIjMHju3REREREREZPbYuSUiIiIiIiKzx84tERERERERmT12bomIiIiIiMjssXNLREREREREZo+dWyIiIiIiIjJ77NwSERERERGR2WPnloiIiIiIiMweO7dERERERERk9ti5JSIiIiIiIrPHzi0RERERERGZPXZuiYiIiIiIyOyxc0tERERERERmj51bIiIiIiIiMnvs3BIREREREZHZY+eWiIiIiIiIzB47t0RERERERGT22LklIiIiIiIis8fOLREREREREZk9dm6JiIiIiIjI7LFzS0RERERERGaPnVsiIiIiIiIye+zcEhERERERkdlj55aIiIiIiIjMHju3REREREREZPbYuSUiIiIiIiKzx84tERERERERmT12bomIiIiIiMjslTJ1AK+LlJQUxMXF6TStra0t3N3dAQDJycl49uwZAKBMmTJwc3MrshhLoszMTERFRSErKwuVKlWCtbV1gfOkpaXh4cOHsLa2hre3NywsCv6OJjU1FY8ePULp0qVRuXJlKBSKQsdeFGVuDvmQkJCAhIQEAEDZsmXh5ORk4ojklONzcHCAs7OziSMyPnPIk+KSkZGBEydO4PHjx3BwcEC9evVQo0aNN3Yfva7bra29VSgUsLKyQvny5WFjY1PMkal6XcvgTVZSy7SkxkVkUoKMYuvWrQKATi9/f39pvh9++EEa3rVrVxNuQfF68eKFGDt2rChbtqy0/WXKlBHDhg0TL168UDtPTEyMGDRokLCxsZHmcXd3F3PmzBGZmZlq54mMjBR9+/YV1tbWsnm+//77Qm9DUZR5QfkQFxcnQkNDCx17YUybNk2KcezYsSaNRZ2ZM2dK8YWEhJg6nCLxprYb+V25ckVUrFhRpb69ePHijdhH6tqD13W7dW1vK1WqJCZNmiQSEhJMFmtRlEFJaPvfZKauV5rK39RxEZVEvCyZil1qaio6duyI5cuXIykpSRr+6tUrrF+/Hq1bt8bLly9l88TFxaFZs2bYtGkT0tLSpOExMTH4/PPP8f7770MIIZvnypUraNy4MXbt2oX09HTZPB999BFWrVpVRFtofFlZWVi6dCmqVauGH374wdThEJUI48ePR1RUlPReoVCgcuXKcHR0NGFURY/tgWYPHz7EwoUL0blzZ6Smppo6nEJjWb/ZWP5E+uNlyUXAxsYGgwcP1ji+Tp060v+enp7o2LEjAODtt98u8thKgjVr1uDPP/8EALi7u2PKlCnIzs7GN998g+fPn+N///sf5s+fj6+//lqa55NPPsG9e/cAADVq1EBISAiuX7+O9evXAwB2796NdevWYcSIEQByL1Xs378/nj9/DgBo2rQphgwZgitXrmDNmjUAgIkTJ+LDDz+EnZ1dobepqMv8woULGD9+PAC8lpfZEhni8uXL0v+7du1CQECAVOdf57ZVW3vwOm93HltbWwwaNEh6L4TAq1evcOrUKTx8+BAAcPHiRaxfvx4fffRRscdnzDJg218ymKpeFVT+b0J9J9IXO7dFwM7OTuezgp07d0bnzp2LOKKSZdu2bdL/O3bsQJs2bQDk/j5y9OjRAIBff/1V6ty+fPkSO3bsAACULl0aR48eRaVKlQAALi4umDdvHgBg8eLFUud27969uH37NoDczvDJkyel3/Pevn1ben/hwgXpwFAYLHOi4pWTk4NXr15J71u3bg1LS0u4uroCeHPr2Zuw3WXLllXb3qampqJp06a4du0aAODAgQMm6dy+CWXwpimpZVpS4yIyJV6WbGLHjx9HQEAAAgICMHv2bJXxv/zyCzp27Ag3Nzf4+vpi1KhRiI2Nxdq1a6X5zp8/L02/b98+afh3332nsrzg4GBpfN433ACwZcsWafjJkyexbt06+Pn5wcfHB6NGjZKmO3LkCLp16wYvLy+4ubmhefPmWLx4seyy34Ls27cP4eHhWL58OVq3bi0NL1++vPS/ra2t9P/169eRlZUFAKhevbrUsQUgdYYB4ObNm7h796603/IMGDBAdqOq3bt3IyUlBS9evDBKx1ZfBZV5fosWLcLnn38uvX/69CkCAgIQFBQkm06fstG1vHVx8+ZNBAUFwdPTE56enujZs6csJ5UlJSXhyy+/ROPGjeHm5gZHR0f4+PigW7duCAsLU9mevBj37NmD+Ph4TJgwAdWrV4eLiwuaNm2KdevW6RxnXFwc+vXrJy0zNDRU5+0bMWIEatWqBScnJ7i4uKBevXoYM2YMIiMjNc5369YtjBw5EjVq1ICzszNq1aqF3r174/jx44XaL7owRj01ZDuA3Bt6LVy4EC1atICHhwc8PDzQrl07rFixAhkZGWpj1becZ86ciV69esmGDRkyBAEBAVJcJaFt1bWe6VP+BbUHurQvxVFGpmBra4tOnTpJ758+fap2On3rh765UlAZ6Nqm6Nr267NNxmj79c0ffdap774Giue4oq5MIyMjpWHaXnv27DEoXl3Kv6Bce13rOpFWpv7R7+tC+WYXzs7OOs+n7WYAn3/+udobZlSsWFF0795der9z505pngULFkjDBwwYoLI+d3d3afy1a9ek4co3CerXr59sfR06dNAaDwDRsGFDER8fr+9uk8TGxoomTZpIy1u2bJk0Ljw8XBretGlT2XyZmZmyOPbt2yeEEKJmzZrSsAMHDojIyEixcuVK8f3334vLly8bHKeyoihzdePyl0fey9raWppP37LRpbw1UZ63UaNGokyZMirrtLS0FJs3b5bNl5SUJBo3bqz1ZjDffvutNP3KlSul4SNGjBBeXl5q55k2bZpsPepuKJWSkiKaNm0qDa9Vq5aIi4srsKxOnjwpu4FZ/pezs7O4evWqynw7duyQ3cQs/0v5xiD67hchDGs3DKmn+myHEEJERESISpUqaZz+7bffFlFRUbJ5DCnnjh07alzHDz/8YPA+Mnbbqks907f8C2oPCrrBTHGVkbEpt7fu7u4ap+vcubPW7de3fhiSK9rKQJ82RZe2X99tKkzbL4Rh+aPrOg3Z18V1XFFXppcuXdK63rzX3LlzDYpXl/LXlmvmWteJCoudWyNRPvDa2NiIsWPHqn1t2LBBNp+mhuno0aOyhqRly5Zi9uzZYtCgQcLCwkI2ztid27xX5cqVhbW1tVi/fr3YuXOnNNzS0lIMHz5cfP3116J27dqyg5Yh2rZtKzvYBwcHi+zsbGn8rVu3pHHu7u4iJydHGnfv3j1ZzCtXrhRCCJXllSpVSjZdz549RVJSkkHx5jF2mWsa98UXX8j2s7W1tWjatKlo06aNEEIYVDYFlbc2+ee1t7cXn3zyiZgxY4aoUqWKNNzW1lbcv39fmm/WrFnSOD8/PxEaGirmzp0rWrRoIQ13c3OTplc+yOat5+OPPxZz586VrcfGxkakpKRI8+Xv3GZnZ4sePXrItjP/AV2TevXqSfv1iy++EHv37hVbtmwRbdq0kZbXtm1b2Tw3btyQ5V/jxo3F1KlTRe/evYVCoZCGnz592qD9oilPDM0FTfTdjmfPnsk+CDk6Ooq+ffuK7t27y5bzn//8R6SnpxeqnCdOnCgrAwCiRYsWom3btuLw4cNa91Fxtq261DN9y7+g9kBb+1KcZWRsyu2to6Oj2Lt3r/TauXOnWLdunQgKCpLFuWXLFtky9K0fhuaKtjLQp00pqKwN2abCtP2G5o8u6zR0XxfXcUVdmf7999+icuXKwtfXV/j5+YkqVaqIGjVqCDs7O9k6lL/o1SdeXcpfU66Zc10nKix2bo1E18cU5P9gqalh6tatmzTc399f1tlbvXq1UT+ACaF68NmxY4cQIvf28y9fvhT169eXxq1atUqaLzk5Wfj4+AgAQqFQiHv37um139LS0mQHLh8fH3HkyBGV6fz8/KRp8jqwOTk5YujQobK458+fr3I2F4AoVaqUqFatmrCyspKGdenSRa9Y8zN2mWsbd/r0aWl4lSpVZPMYUjYFlbc2yvMqFApx8eJFadyLFy9kZaX87e6PP/4ohgwZIho1aiQiIyOl4UlJSbIcyFt//oPsmTNnpHnu3r0r62BduXJFGpe/cztmzBjpfYUKFcSdO3e0bl+ejIwMaT4XFxfZmd6UlBQxcuRI8d1334mTJ0/K5lPOyV69esnq7vjx46V8nDhxokH7RQjNeWLMeqrvdnz66afS9JUrVxYPHjyQpr9y5Yqwt7dXG5uh5Zy/nuc/E18S2lZd6pkh5a+tPdDWvhR3GRmTPo9eAyCGDRumsgx964ehuaKpDAxpU7SVtSHbVJi239D80WWdhu7r4jqu6PrInb179wpLS0tp2hEjRsjG6xtvQeWvKS5zrutEhcXOrZEYu6NTrlw5aXjemYg8WVlZwtXV1WgfwISQH3yqV68umyc6Oloap1AoRGpqqmz8f//7X2n8mjVr9Npv0dHRYsiQIWL8+PGiQoUK0nKmT58um2779u2y/fif//xH9i1i3mvBggUiLS1NNszBwUH89ddfQggh7ty5I9sH+fetPkpC59bQstFW3gVRnlfdZWyzZ8+Wxit/w5xfTk6OuHHjhliyZInsS4eYmBghhPwgW7duXZX5lfPl1KlT0nDlzq1yPQH+/yyjrtzc3KR5bWxsxHvvvScWLlwoLl++LPvwpUz52/Jjx47Jxj19+lT8+eefsm/K9d0vQqjPE2PXU323Q/nyt7xLg5V99tln0vj27dtLww0tZ0M7t8XZthpSz3Qpf0M7t8VdRpocOnRIrF27VuWl7UsXXdrbcuXKiT59+ogDBw6ozG9I/TA0V7SVgb5tirayNmSbCtP2G5o/uqzT0H2dX1EdV3Tp3J49e1Z2VrRLly4iMzNTY6y6xGto57ak1HUiU+DdkotA+fLlcfHiRbXjHBwcCpw/JSUFiYmJ0vuqVavKxltaWqJKlSqIi4vTOzaR71mw6ig/tgaAdJMmIPc5kvlvN5/36A0g9+Yz+vDw8JCe3fbf//4XtWvXRnJyMkJDQ9GnTx+89dZbAICgoCA8efIEU6ZMQUZGBq5cuQIg907IFhYWuHnzJoDc/WttbY1SpUpJN6H68MMPUb9+fQBAlSpVMGbMGMycORNA7t00u3TpolfM6hS2zA1ljLLJX976qFatmsqwmjVrSv8/efJENi46OhqbN29GeHg4Ll68KMvzPAqFQmWYl5eXyjB7e3vp/+zsbLXx5a8ju3fvRqtWrdROq84XX3yBjz/+GACQlpaGQ4cO4dChQwCAChUqYOjQofj000+lMs7KysLjx4+l+f38/GTLc3d3h7u7u8p6DN0vyoxZT/XdjtTUVNkN6po0aaKyzGbNmhW4fkPLWVembFu11TNjlH9BSlIZLVq0COHh4SrDd+7cicqVKxc4f/ny5bF9+3YkJibi4MGD+PHHHwHklm+DBg3QrVs3lXn0rR9FlSv6tinaFLbO69P2Gyt/1K2zsPu6uI8r6vz777/o2bMn0tLSAABvvfUWduzYgVKlVD9mF3V9L0l1ncgU2LktAhYWFiqNsz7yNxh5nTRlOTk5BS5H3YetzMzMAudTvmsxAKmxzltv3iN21Hn58mWBy9fE29sbHTp0wP79+yGEwNGjR6XOLQCMHz8ePXv2xC+//IK4uDjUrFkTgYGBsgO6t7c3gNwP33kfzn19fWXrUe58PXjwwOB4lRW2zA1ljLLJX976UJdjpUuXlsWU59dff0VgYCCSk5MB5H5gadiwIdq2bYuVK1ciNTUVQO6+zM/GxkZlmKWlpU4xlipVCpaWlkhPT8fy5csREhIiywFtxo0bBw8PD3zzzTeIiIiQjXv69CnmzJmD8PBwnDlzBqVKlVKpX7p8mVSY/aLMmPVU3+3I3x6VKVNGZRrlO6BraocKU866MGXbqqmeGav8C2IuZaQLKysr6a7Iffv2haenJ+bOnYusrCxMmzYNiYmJ0iPi8uhbP4yVK/np26ZoU9g6r0/bb6z8UbfOwuxrUx1XlD179gzvvfcenj17BiC3UxgWFqb2C4riqO+vU10nMgQ7tyWQg4MD7O3tpcbv9u3bsg/jGRkZ+Pfff9XOq/xtn/KBD8ht8HTpfCo/NgeA9NxIILdBjImJ0fitonLHRp3U1FTs2bMHDx48wPPnz7Fw4ULZeOWD+YsXL1Tmr1ixIj755BPpfUpKiuzRCXlnaOvVqyd1bmNjY1ViyJN/W82NMcqmMPtA+cxBHuUzfnln9zIzMxEcHCzl9Ndff42PP/4YZcuWBQCsXr1amqewH+KVWVpa4ueff0ZERATmz5+PzMxMTJgwAYcPH9Z5GX379kXfvn1x//59HDlyBKdOncLvv/8unZX+448/EB4eDn9/f9ja2srq7sOHD2VnPZ8/f459+/ahXr16qF27NkqXLm20/WLMeqrvdtjZ2aFcuXLSGYh//vlH5QzcP//8I/3v4+Ojdf1FxZRtq7p6Vpz1oiSVUbNmzdR+cPbw8DBoeV9//TVOnTqFs2fPAgDmz5+P1q1by87g6ls/rKysDM6VgujTpmhT2DqvT9tvrPxRt05D66WpjivK0tLS0LNnT9y5c0falrCwMLVnPYsr3pJU14lMgc+5LYEUCoXs+a8LFy6UPY9s3rx5ajt+gPwS2KioKNm4ixcvqv1GNL/8jWrt2rWlxjc1NRVXr16Fvb299Prmm28we/Zs7N27F/Hx8VqXbWlpieHDh2PatGlYtGgRLly4II1LTEzEqVOnZOvN07NnT3h5ecHa2ho3btyQhm/fvl3apv/85z+oWLEiAMg+FOzYsUO2/5TXoXyJVGpqKp4+fYqnT58iISFB63YUN+UyUf6W2xhlU5iD6O+//67Swd2xY4f0f+PGjQEAd+7ckZ456eDggC+++EKK+8mTJ0hJSZHm0eVsp64GDhyIoKAgTJs2Tfog+Ouvv0qXAWrz77//Ys6cORg0aBBCQkJQuXJlhISE4Oeff8ajR49kl3opXwHQvHlz6f+tW7fKlrl9+3YMHToUjRs3xjvvvGPU/WLMeqrvdgCQ/gLAt99+K4s3PT0dS5culd6/++67Ba6/KJiybVVXzwwtf03tQUFKShmFhobi4MGDKq+WLVsatDxLS0ts2rQJdnZ20rCQkBDZ5Z761o/C5IomhrQp2sq6sHVe37bfGPmjbp2G7mtTHVeUlzlo0CCcO3cOQO6Zzv3798uuOCtsvOZe14lMgZ3bEuqjjz6S/j9z5gwaNWqEiRMnwt/fHzNmzNA4n/JvIC9evIilS5fi/v37CAsLQ//+/Q2KpVSpUggODpbeDx48GL/99htiY2OxYsUKzJkzB9988w2GDRum8sD4/KysrPD+++9L73v37o0VK1bgp59+QocOHaTLetzd3REQECBN5+7ujujoaOTk5GDIkCHYvXs35s+fj7Fjx0rTTJw4Ufp/4MCBcHR0BJD7IeGdd97B1q1b8fnnn0u/z7KwsMCAAQOkebZv3y495HzgwIGG7Koio3wJUVRUFNasWYNFixbB0tLSaGVjiOzsbPj7+2PPnj04c+YMBgwYgN9//x1A7geWwYMHA4DsQ+fLly+xefNmAMC9e/dU9rXymfXCyjs7VLZsWcyaNUsaPnHixAIvI7WxscHMmTOxefNmrFmzBgsWLEBycjKysrJw8eJF2W+alC+NDwkJkf5fs2YNRowYgQMHDmDJkiX49NNPpXGDBw826n4xZj3VdzuA3Mst884aHTlyBO+++y62b9+OzZs3o2XLltKZAicnJ+k3h6ZQktpWQ8tfU3tQ0Ad4cykjQ/j5+ckuRY6OjsZnn30mvTekfhiaK5oY0qZoK2tj1/mCFGX+GLKvTXVcyTNv3jzs3LlTeu/l5YVvv/0W7777Lrp06SK98vaFIfGyrhMZoFhvX/UaU76To7Ozs87zabsD39ixY9XeEbJevXrSs/IAiF27dknzZGRkqL2LMABRvnx52Xya7pY8duxYlThfvHgh6tSpo/VOlXPmzNFpm2NiYoSvr6/G5VhbW6vcnTUyMlJ2N8X8L3V3L922bZvK8/GUX1999ZXOZaFOUZS5pnHJycmyOynmvWJiYgwqm4LKWxvleZWfzZf/lfeImDytW7eWjbe1tZX+L1u2rPT/iRMnhBDyuzb27NlTJY4aNWpI43///XdpeP5HAeXJzMwUNWvWlMYtWrSowG1VvkNu3it/Tg0cOFBlvoEDB2otD39/f5GVlWXQfhFCc54Ys57qux1CyO+Ure5lZ2cnwsPDZeswtJwNvVuyEMXXtupSzwwpf23tQUHtWHGWkTEpt7fu7u5qp8nJyRHt2rWTplMoFOL8+fPSeEPqhyG5oq0M9G1TtJW1IdtUmLZfCMPyR9d1GrKvi+u4oq5MBw8erHVf5L0aNmxocLwFlb+2XDPXuk5UWDxzW4J9//33WLNmDerXrw8bGxtUqFAB48aNw5kzZ6RLWQD5b2lKly6NgwcPokGDBrJltW7dGmfOnFG566muHB0dceLECQwdOlT2TSIAVK5cGevWrZN9S66Nm5sbzp8/j6CgIJWbEzRr1gxnzpxBx44dZcP9/PwQFhYm/aY2j7OzM+bNm4dNmzaprKdfv34ICwtD9erVVda/evVqTJ8+Xad4SwI7OzssWLAAVlZW0jBra2s8f/7cqGWjr9GjR2PNmjVwcXGRxRoaGqrye+rt27ejR48e0vvU1FR4enpi8+bNsm/mlS9rNqZSpUphwYIF0vuvvvqqwDudTpo0CTt27JCdmc27WYeLiwu+/PJL6W7fyn788UfMmzdPtl+A3G/hR40ahZ07d0q5b8z9Yuxc0Gc7AODzzz/H4cOHZZc0A7lXSfj7++PChQvo0KGDzusvKiWpbTWk/LW1BwUxlzIyhEKhwIYNG6QzZEIIjBw5Urpk3JD6YUiuaKNvm1JQWRd3+1+U+WPIvjb1cUVf+sbLuk6kP4UQRfBDBCq0e/fuwc7ODm5ubmrHN2zYEH/++ScA4OTJk2jTpo3KNP/++y9iYmJQqVIlVKpUyWixvXr1Crdv30ZKSgq8vLzg4+Nj8O82ExIScP36dWRmZqJKlSrS3Y41EULgwYMHePDgAcqVK4e6desWeEdJIPdW90+ePIGTkxPq1q1rtnf8S0hIwP/+9z/Y2tqiRo0astvyA8YtG31kZGTg2rVryMrKQr169dTenTFPbGwsIiMjYW9vjzp16hRLfMYQFxeHR48eITk5GW5ubqhevXqBsefk5ODmzZt49uwZHBwcULt2bbU30gGMv1+MmQv6bEee2NhY3Lt3D0IIVK9eHU5OTgat29hKattqSPkX1B7oss6SWEbFQZf6YYxc0UafNkWXsi7u9t+Y+VPYfW1uxxV942VdJ9IdO7cl1IABA7BlyxbY2tqiZs2aOHfunPRh8t69e6hduzbS0tKgUCgQExMju2siERGpx7aVdMVcKT7c10RkLCX7q603WOfOnQHkXrJy5coV1K9fHx988AG6du2KevXqSY+ieO+999jIExHpiG0r6Yq5Uny4r4nIWHjmtoTKycnBsGHDsHHjRo3T1K5dG0ePHlX7PDUiIlLFtpV0xVwpPtzXRGQs7NyWcBcuXMCBAwfw77//IikpCVZWVqhYsSLatm2LXr16yW4yQEREumHbSrpirhQf7msiKix2bomIiIiIiMjs8Te3REREREREZPZK3blzx9QxEBERERERERWKwsHBgZclExERERERkVnjb26JiIiIiIjI7PE3t0RERERERGT22LklIiIiIiIis8fOLREREREREZk9dm6JiIiIiIjI7LFzS0RERERERGaPnVsiIiIiIiIye+zcEhERERERkdlj55aIiIiIiIjMHju3REREREREZPbYuSUiIiIiIiKzx84tERERERERmT12bomIiIiIiMjssXNLREREREREZo+dWyIiIiIiIjJ77NwSERERERGR2WPnloiIiIiIiMweO7dERERERERk9ti5JSIiIiIiIrPHzi0RERERERGZPXZuiYiIiIiIyOyxc0tERERERERmr5SpAyAiIiIiIqLiFRwcjPj4eJXhrVq1wpQpUxAfH4/g4GBs2rQJGRkZGD58OLZu3Qo7OzvExsYiNTUVPj4+JohcM3ZuiYiIiIiI3jDh4eFo2bIlWrVqJRterVo1AICFhQUcHR2hUCiQmpqKgwcPIisrCwDQokULLFmyhJ1bIiIiIiIiMr127dohJCRE7bjy5ctj7dq1sLa2RkJCgjQ8IyMDKSkpyMjIQHZ2NiwtLSGEwMOHD+Hk5AQHBwfZctLT02FtbY3Hjx/Dy8urSLeHv7klIiIiIiIimcePH8PW1hYxMTGy4YGBgYiLi8PIkSOxfPlyhIeHw8fHB126dIGvry+Cg4ORlpYGAHjw4AFcXFzQr18/eHt7Y/r06UUaM8/cEhERERERvYF2796NyMhI6b2VlRVCQ0O1zrNv3z54enpi7dq1aNasGapXr46lS5diwIABSE5ORseOHTF//nzMmDEDAJCSkoKyZcvi7t27KFOmTJFuD8/cEhERERERvYHS09ORnJwsvVJSUvSa/8iRI7C2tkbdunXx119/ITIyEu3bt8euXbtk040ePRqVK1eGm5ubMcNXwTO3REREREREb6APPvhA429udREVFYVXr15h9OjRsuH5O7He3t4Gr0Mf7NwSERERERGR3jw9PeHi4oJz585Jw6Kjo5GUlCSbzsKieC4Y5mXJREREREREpDNra2tERUWhY8eOePHiBVasWAEASExMRFIXNU8AACAASURBVI8ePbBx40aTxMXOLREREREREemsT58+GDNmDObNm4fdu3dj4cKF8PLygru7O1xdXTFz5kyTxKUQQgiTrJmIiIiIiIjM0qtXr2BlZYVSpXJ/6RoTEwMrKyuUL1/eZDGxc0tERERERERmj5clExERERERkdlj55aIiIiIiIjMHju3REREREREZPbYuSUiIiIiIiKz99p1blNTUxEaGop3330XdevWRc+ePbF3794iXWdiYiJmzJiBHj164NNPP8WDBw+kcQkJCfjyyy/Ro0cPDBo0CEeOHNG4nJycHPTo0UN6BQQE4L///a9snvj4ePTo0QMJCQkAgNjYWNn68gsODpYtM+81f/582bJiY2PRo0cPpKSk6LRcY5s+fTo2bNigcfyiRYu0jteV8nbl35cRERHw9/dHvXr1cPnyZdm4wgoICEDPnj2l/ats3bp16NGjB/7880+Dl59/W4iIiIiItOnTpw9WrVqlMnzDhg2YPXu2CSIqvNeqc/vkyRM0bNgQ+/btQ2BgIEJDQ1GpUiUMHDgQ48ePL7L1du/eHWfOnMGQIUOQlJSEli1bIjY2FpmZmejcuTMiIiIQEhICHx8fBAYGYufOnWqXI4TAwYMHUalSJfj7+6N9+/ZQKBTo1asXNm/eDACwsLCAo6MjFAoFAKBFixb43//+pzG28PBw2NnZwd/fX/Z6++23ZctKTU3FwYMHkZWVpdNyje2PP/7ArVu3NI7/66+/tI7XlfJ25d+Xn332GUqXLo3vvvsO3t7esnGFdejQIRw6dAhhYWEq4xYsWICDBw8iLi7O4OWnpaXh4MGDSE9PL0yYRERERPSGOHz4MD755BOVz/y3bt1CRESEiaIqnFKmDsCYJk+eDFdXVxw/fhyWlpYAcs+YdejQAYGBgejYsSN69OgBAEhPT4e1tTVSUlIQHx+PSpUqyZYlhMDDhw/h5OQEBwcHjev8999/ERkZiXPnzsHHxwe9evXCoUOHcPToUfj4+ODWrVs4deoUbGxs0LVrV1hYWGD9+vUIDAzUuMzu3bvD399fem9tbY1169bhww8/RPny5bF27VpYW1sjIyMDKSkpyMjIQHZ2trTN+bVr1w4hISFqx+UtS/mMn6blatonefvy8ePH8PLy0rhd+spbX/6y0RaLcjz5yzb/duXfl3FxcRg7dizatGmD0qVLS+MKWqeu29+2bVvs2rULQUFB0rDLly/DysoK9vb2arfPxsYG7u7uKsuKi4tDcnIyKleurLEDnp6ejlKlSmnMCyIiIiJ6s3l5eWHIkCG4cOGC9Lza/PI+6+bJOxmWN33e+JcvXyItLQ2urq7S8MePH8PHx6fYPo++Nmdunz17hi1btmDWrFkqO69Xr17o1KmTdFnr48eP4ejoiOnTp8PLywu1atXC22+/jSdPngDIPdvp4+ODLl26wNfXF8HBwUhLS1O73mrVqkmFBuRe9pqUlIQqVaqgSZMmuH79OmxsbKTpU1JSYGtrq/e2eXt7S7Hb2toiJiYGgYGBiIuLw8iRI7F8+XK9lpl/WcrULVfTPnnw4AFcXFzQr18/eHt7Y/r06XrHoc7OnTtRsWJFdO7cGbVr10ZkZKQ0Tlv5aCvb/NulvP3t2rXDjRs3MHXqVAwePFhl3xhj+4OCghAWFia7NHnbtm3o37+/bLr169fDyckJHTp0QKVKlVCnTh3cv38fQG5jEhgYCD8/P3Tq1AkuLi7Ys2ePbH4hBEaMGIGmTZvi+fPnhSoHIiIiInp9zZkzB48fP8bcuXPVjn/w4AFsbW2RmJgoDRs5ciSmTJkC4P8/e0+dOhVVqlSBp6cnhg4dik2bNsHT0xNvvfUWGjZsqPaneUXhtenc/vPPPwCAunXrqh3fsGFD2Sn39PR0xMXF4dGjR4iJiUFGRgY2bNiA+Ph4BAUFYe7cubh58ybu37+PGzduYP78+VrXL4RA165d4efnhwkTJqB58+awtraWOqUAcP36daxZswbDhw/Xuqxvv/0WQ4cOxZAhQ9C2bVucO3cOixYtUplu3759cHNzw8aNG/Hxxx9rXN7u3bsxZcoU6fXFF19oXX/+5Ra0T1JSUlC2bFncvXsX48aN07psXdy/fx9Dhw7F5s2bcfv2bfz888/SpRG6lI+mstW2v86dO4c6derg22+/xZYtW2TjjLX9NWrUQI0aNaRLk4UQ2LFjB95//31pmkePHmHMmDHYt28fIiMjERcXh+zsbKxduxYA8Ntvv+Hs2bN49uwZ7ty5gy+//BLff/+9NH9OTg7GjBmDK1euIDw8XPrmjIiIiIgoPxcXF6xYsQKhoaH466+/DFpGeno6EhIS8OTJE5w9exYbN27E3r17cefOHTx69AjR0dE4ePCgkSNX77Xp3Ob9XrFs2bJqxzs7O6ucfR03bhwcHBxgb2+Ppk2b4vHjxzhy5Aisra1Rt25d/PXXX4iMjET79u2xa9curevPysrCqFGjMHv2bKxevVqlAK9du4bOnTsjJCQEXbt2BZB7s6nHjx9Lr+zsbAC5SVaxYkV4enrCz88PT548werVqw3aL0BuwiUnJ0svfb850WWfjB49GpUrV4abm5vK/Jq2U5NTp06hdu3a6NChAwCgQYMG6Natm86xAOrL1lCF3X5lQUFB0m+uT58+DS8vL/j5+Unjvb29ER0djTZt2iAmJgZXr16Fk5MTnj17BgDw9PREfHw8PvvsM5w6dQqjRo3C8ePHpfknTJiAHTt24NixY3B2djZ4m4mIiIjozdCrVy/07dsXQ4YMQWZmpkHLGDlyJCwtLdGkSROULVsWgwYNQvny5eHo6Ijq1avj6dOnRo5avdfmN7e+vr4AgDt37qBOnToq4+/cuSNNk0f5w7+trS2ysrIQFRWFV69eYfTo0bJpC+q0lC5dGt27dweQeyZv8eLFUofs5MmTCAgIwIQJEzBjxgxpnhkzZsjOuuVdejpo0CDZb25Pnz6Ndu3aITg4GBYW+n8f8cEHH2j8za0udNknymeo88u/nY8ePdL629R79+6p/M4073ezupaPurI1VGG3X1m/fv0QGhqKlJQUbNu2TXbWFsg9m/vdd99h9erVUCgUaNCgAV69egUhBADgrbfewu7du7F48WIsX74c9vb2mDJlCgYOHAggd98qFArs3bsXwcHBBm8zEREREb05li1bhjp16uh0l+ScnByVYZ6entL/VlZWshOOVlZWxglSB69N57Z+/fqoUaMGli9fjhUrVsjGPXv2DFu3bpV1LAGovRGPp6cnXFxccO7cOWlYdHQ0kpKS1K73jz/+wPr167FmzRppmJubGx49egQg9y5k/fv3x7Jly/Dhhx/K5p07dy5mzpwpvdd01rlmzZoQQuDu3buoWrWq2mmKki77RFunO/92li9fXuv6atasiV9++UU27OnTp9LZbF3Kx1h3OQYKv/3KfH19UadOHezbtw979+5VefzPjh07sGLFCvz++++oX78+AKBr165S5zY2Nha+vr4IDw9HcnIyNm/ejLFjx6Jp06YAcn/De+LECXz88cd45513dO50ExEREdGby8nJCStXrkRQUBDatGkj9Uvy7mWkfEY3OjoaTk5OsvkNOQFXFEpGFEayYsUK/PDDD/j8888RExOD7OxsXLp0Cf7+/qhcubLKmTd1/P398eLFC6mDnJiYiB49emDjxo1qp/fw8MBPP/2EH3/8EUIIxMTEYOnSpejduzeio6Px/vvvY8qUKWjRogUiIyMRGRkpdXzt7Ozg7OwsvfKSIjo6GpGRkbhz5w4uXbqEMWPGoEKFCmjUqJHK+q2trREVFVWoM5PqKC9X332Sn6bt1KRt27Z4+PCh9Hziv//+G/v27QOgf/lo2y5dFXad+QUFBWHatGmoU6cOPDw8ZOOio6NRqlQpVKlSBUDuJdonTpyQGpRff/0VrVu3xv3792Fvb4+33noLlpaWKFeuHIDcb8Y+/PBDtGjRAiNGjDAoPiIiIiJ68wQEBCAoKEj2kzdnZ2fY2tpix44dAHKvSFU+4aOvo0eP4uLFi4WOVZPXqnPbvn17/Pbbbzh+/Dg8PDxQpkwZtG/fHo0aNcKJEydkt7DWxNXVFbt378bChQvh5eUFd3d3uLq6ys48KqtUqRJ+/vlnTJ06FR4eHqhWrRpatmyJWbNmYeXKlXj58iW++OILVKtWTXrl/eZWk2HDhqFatWqoUaMGunbtipcvXyIsLAx2dnYq0/bp0wdjxozBpEmTdNtJOlJerr77pLAqVKiAXbt2YcqUKfDx8UG/fv3QsWNHAPqXj7bt0pWxtz8oKAgPHz5UuSQZAIYMGQJfX19UqFAB1apVw9dff42xY8fi+vXrAIABAwagd+/eqFatGry8vNCtWzesXbtW5bLsVatW4fz589KNqIiIiIiICrJ06VJUqFBBem9ra4v58+dj0qRJKFeuHKZOnapyNao+QkNDDT5BpAuFyLve8TWTmJiIhIQEeHp6onTp0gYtIyYmBlZWVgVeRgvkXnseHR0NV1dXnTrRxvTq1StYWVlpfDaVMZerzz4xhpiYGLXPeS1MLIXZX8W1/U+fPoWdnZ3GZyynpKTgxYsX8PLyMuol2ERERERE+WVmZiIhIaHEP4njte3cEhERERER0ZvjtbosmYiIiIiIiN5M7NwSERERERGR2St1+PBh2YB3333XRKEQERERERERGaaUcmf20KFDJgyFiIiIiIiIyDC8LJmIiIiIiIjMHju3REREREREZPbYuSUiIiIiIiKzx84tERERERERmT12bomIiIiIiMjsWURGRpo6BiIiIiIiIqJCsbhy5YqpYyAiIiIiIiIqFAsPDw9Tx0BERERERERUKPzNLREREREREZk9dm6JiIiIiIjI7LFzS0RERERERGaPnVsiIiIiIiIye+zcEhEREZHJ5eTkIC0tzdRhEJU4J0+exOXLl5GRkWHqUEq8UqYOgIrOtm3bcOnSJXh7e5s6FCIiMlBycjKsra1RunRpU4dCVKTS0tIQHR0NPz8/U4dCVKzu3buHZcuW6T1ffHw8ypcvrzL89u3bqFWrlt7L+/777zFmzBi14xo2bAh9HyHbqlUrnDp1Su24BQsWYOrUqXrH+PDhQ1SsWFHjeHZuX2MbNmxAdHQ0qlWrZupQiIrUixcv1DbuRK+DhIQE2Nrawtra2tShEBWprKwsJCYm4tGjR6YOhajYnDlzBl9++SVycnK0TpeTk4Pff/8dM2bMwN27d7F+/XqNn31q1KhR4PL0FRERYdTlTZ48GZMnTzbqMgF2bl9rVlZWGDRoEKZMmWLqUIiKVFhYGLp27WrqMIiKREREBLy9veHm5mbqUIiKVFJSEv7++2+0atXK1KEQFRs/Pz9UqlSpwOksLCzQsWNHtG/fHnPnzkXv3r2xb98++Pv7F0OU5oOdWyIiIiIiIjNgYWGBadOmwcbGBkOGDMH169fh5ORk6rBKDN5QioiIiIiIyIxMnDgRVatWxdq1a00dSonCzi0REREREZEZUSgUmDp1Kk6fPo3s7GxTh1Ni8LJkMonY2FgsWbIE4eHhSE5ORu3atTFx4kQ0a9ZMZdr9+/dj3bp1mD17NurVqycb16dPH3Tq1AmjRo2SDd+wYQOePHmCadOmFRhLcHAw4uPjVYa3atWqwN8rDxw4EElJSdJ7CwsLODs7o2/fvnj33XdVpn/+/DkGDx6MnTt3wsbGBkDub4wGDhwIAAgICECfPn2waNEiXL16FbVr18bo0aPh4+Oj07LyS0hIwJIlSxAREQFHR0cMGDBA428z5s+fj7Jly2LUqFGYNm0arl27BmdnZ/zwww9a98GbhHmrOW+HDh2qNd8SExN1yuuC1ptn586d2LdvHzIyMtCvXz/06dMHAJi7RYS5n5uD6vJe07R5IiIisH79etlyO3fujICAAJX1paam4rvvvsP58+fh6uqKsWPHokGDBszrEoR1Qf1xwMvLCwqFQmU+Ozs7LFiwQG0M2dnZWLx4MU6dOgVfX1989NFHqFatGvNdD+3bt0dgYCAuXbqkNgffROzclmDTp0+Hr6+vdPAMCgqSnv+mUChgb2+Pjh074sMPPzSrR0TcvXsXbdu2Ra1atTB58mRYWlpi//79aNu2LXbt2oXu3bvLpl+0aBHi4uKwfPlyrFq1Sjbu8OHDCAsLQ6tWrVC3bl1p+K1bt3Dnzh2d4gkPD0fLli1VbmChy12mjx49isDAQLRo0QIAkJGRgT///BMBAQHYvHkzgoKCpGmfP3+OwMBA/P7777Jv2DIzM3Hw4EFs2rQJjRs3Rvfu3VGqVCl89NFHOHbsGFq2bIk///xTdjMZTctSlpmZic6dO6NChQoICQnBhQsXEBgYiPXr1yMwMFBlH3z22WcYO3YsgNwPbaVLl8aGDRsK3AdvCuat9rwtKN90yWtl2nJ80aJFWLZsGebMmYOMjAwMHz4cQO6HReau8TH3/z8H8+e9tmmVt/n06dOyDoOVlZXa+IYNG4YbN27gs88+w5UrV9CqVStEREQwr0sI1gXNxwFLS0uVx8Rs3boVNWrU0BjDwoULsWvXLkyfPh3nz59H69atceXKFea7Huzs7NC7d2/cuHGDnds8Z86cEXnCwsIElRydOnUSkydPlt47ODiI4cOHi++//1589913Ytq0aaJy5cqiefPmIjMzU2X+rl27innz5hVnyDrp3LmzaNSokUhPT5cNnzx5svD19RXZ2dnSsNu3bwtra2tx7NgxYW9vLxITE2Xz2NraCj8/P9GwYUPZPpg8ebLo1auXTvF4e3uLVatWqR2XkZEhMjIyZMPS0tJEVlaWEEIIV1dX8dNPP6nMN2zYMNGtWzfp/fHjx0WFChVEu3bthEKhEMnJydK4Z8+eCYVCIaKiosQ///wjPD09xf3794UQQuTk5AgfHx+xefNmnZaVnp4u7YdTp04JBwcHkZqaKo2fMWOG8Pf3l8UaHx8vfH19RYMGDcS4ceOk4b/88ovw9vbWsNdKloMHDxb5Oswpb4XQnrvGzlshtOebLnmtnLva1pucnCxcXFzE2bNnpWHLli2TtXXmlLu6uHz5soiJiTHZ+s0p94u6zc6f99qmzdO3b18RGhqqNl7lvM/OzhbW1tay9qxBgwZi9uzZQojXL6/VSUxMFKdPnzZ1GBqZU10QoviPA8rCw8NFhQoVZG2Xcr7HxsYKW1tbcfnyZWm8v7+/mDVrlhDizcj3PL6+vuLAgQMGz9+4cWOVz3ZvMv7m1sx06dIFY8eOxfjx4xEaGoqIiAhER0dj3rx5pg5NJ1FRUTh27BjmzJmj8s319OnTce7cOVhY/H9abty4ER06dEDHjh3h6emJn376SWWZc+bMwePHjzF37lyjx7t9+3Y4OTnh7t27AHIvhXRycsI///yjdb6EhARkZGRI7x88eIDly5cX+KP/atWq4fHjx9LlmrGxsUhKSkKVKlV0Wla7du0wceJEAECTJk1w/fp12eVxKSkpsLW1lc0zatQoDB8+HG+99ZbW2N5k5pa3gGG5a2jeAtrzTZe8Vs5dbes9d+4cXF1d0bx5c1y7dg0XLlxASEgIH3lWRMwt94u7zdZl2qtXr8LPzw8///wzduzYgRcvXkjjlPPewsICVatWxeXLl6WY7t+/j6pVqxYYAxU9c6sLQPEfB/K8fPkSw4YNw/z582VX5yjn+4ULF2Bra4uGDRtK49955x0cO3ZM5/VQLjc3NyQmJpo6jBKDlyWbOScnJ4SEhGDXrl06/T7D1G7dugUhBOrXr68yzsHBAQ4ODtL77Oxs/Pjjj1i0aBEAYNCgQVi1ahXGjBkjm8/FxQUrVqzA+++/jx49ehjUSdu9ezciIyOl91ZWVggNDcXAgQMRFhaGYcOG4ccff8SoUaOwYMEC1KpVS5r2t99+Q0JCAoDcBv3y5csICwvD/v37pWmGDBkCALJ1aCOEQLdu3XDixAl8+umnaN68uU7L+uabb+Do6AgAsLa2hre3tzTu+vXrWLNmDbZu3SoN27hxI548eYKtW7dixIgROsX2JjK3vAVQYO4aO291yTdtea2cu9rWGxUVBScnJ3Tq1AnPnj1DXFwcXF1dcfjwYXh4eBQYJ+nH3HLfFG22tmmTkpJw9+5dTJo0Cc2bN8fdu3cxfvx4HD16FPXq1ZPlPQDs3bsX77zzDnbs2IGHDx9i9OjR6Nu3r177hoqGudUFoPiPA3mWLFkCa2tr6fe4eZTz/enTp3B1dZWNd3FxQUxMjM7roVxNmzbF1atXTR1GicEzt6+BOnXq4ObNm8jJyTF1KAXKzMwEAJQqVfD3KocPH8arV6+km24MHjwYN27cwJkzZ1Sm7dWrF/r27YshQ4ZI69BHeno6kpOTpVdKSoo0buXKlbh79y6aN2+OZs2aqRycrl+/jmPHjmH79u2YNm0aSpcujWvXrqFTp056x5EnKysLo0aNwuzZs7F69WocPHhQp/natGmj9sB77do1dO7cGSEhIejatSuA3N8OffHFF9JvZUgzc8xbQHvuFkXe5lGXb4D2vNaUu/k9e/YM586dQ//+/XH16lXcvXsXrq6u+PzzzwsdN6kyx9w3RZutSWZmJmbMmIHz589j165diIiIQNu2bTF+/HgA8rzPzs7G1KlT8dZbb2Hu3Ln48ssvsXv3bpw8edLocZH+zLEuAMV/HBBCYMOGDRg9erTKDaaU8z0nJ0flRoFWVla86y8VGs/cvgaEEEhPT0dmZiasra1NHY5Wfn5+AHIb1DZt2sjGvXr1CufOnUObNm1gZWWFDRs2IDExEWXLlpWmycnJwerVq1VungAAy5YtQ506dTB79my94/rggw8QEhKidpyjoyP69++P+fPnY/Xq1SrjP/nkEwwYMAAAsGXLFgQHByMkJKRQl5KVLl1aujFFSkoKFi9ejG7duhm0rJMnTyIgIAATJkzAjBkzpOFjxoxBnTp1cOjQIQDAzZs3YW1tjY0bN0rf1FIuc8xbQHvuFkXeAprzDTBOXru5ucHe3h7Dhg0DkHvGeMiQIZg+fXqh4ib1zDH3TdFma+Ls7IyZM2dK7xUKBYKCgtS2sRcuXMDZs2fx8OFD6VielZWFefPmoX379kaPjfRjjnUBKP7jwG+//Ya4uLgCP0d4eHhIZ43zvHjxQnYlA5EheOb2NXDnzh1UrFixxHdsAaBGjRqoXr262t+ebNu2Db169UJaWhpiY2MRFhaGQ4cOIS4uTnqtX78eu3btwrNnz1Tmd3JywsqVKzFnzhz8+eefRov577//xtKlSxEQEICJEyeqfCuq7IMPPkBwcDCCgoIMurTmjz/+wMiRI2XD3Nzc8OjRI72XBeR+e9yzZ08sXbpUpaNRrVo12NnZITw8HOHh4Xjy5AkePXqEs2fPGrSu15k55i2ge+4WNm/zaMo3Y+Z1lSpVkJqailevXknD0tPTUaFCBYPjJs3MMfeLs80uyOXLl/Hxxx/LzkYlJCSoXI4J5F72Wa5cOdmx3MfHB//++6/R4yL9mWNdAIr/OLBnzx50794d5cqV0zpdlSpV8OTJE9lvRW/duiW7czSRIdi5NXM5OTn46aefND67tCSaN28e1q9fjy+//BJRUVHIysrCvn37MHHiREyaNAlly5bFpk2b4OHhAX9/f5QrV0569e/fH7a2thpvDx8QEICgoCAcP37cKLGmpaVh4MCBGDp0qHQjhrybIWiyYMEC2NjYYMKECXqvz8PDAz/99BN+/PFHCCEQExODpUuXonfv3jrNf+TIEVy6dAkAEB0djffffx9TpkxBixYtEBkZicjISKlDsWzZMuzZs0d6dejQAV27dtXrphFvEnPKW0D/3C1M3gLa802XvFbOXW1atmyJOnXqYObMmcjJyUFSUhJWrlyp8ggOMh5zyv3ibrML4uzsjDVr1mDFihUQQiA2NhbffvstgoODAcjzvm3btnj8+DF27NgBIPc3kCtXrjSr4/vrzpzqAlD8xwEAuHHjhsafmCjne506ddCkSRMsXrwYAHDv3j3s2rUL48aNM3jdRAD4KKCSTN2jgJYtWybu3Lkjbty4IX777TcRGBgonJ2dRWRkpMr8JfVRQEIIsW3bNlGlShWhUChE6dKlRfny5cWcOXNETk6OEEKI2rVri2nTpqmdd+zYsaJKlSoiJydH2NraimPHjsnGx8fHCw8PD6PcSn/8+PGiZs2aIiUlRQghxI0bN4Stra3Yt2+fEELzYyX2798vFAqFSp26c+dOgbfS37Nnj3B3dxfu7u7CwcFBhISEyB6vom1ZzZs3lx7n88UXXwiFQqHyqlevntptDQ4O5qOACmAueSuE9twtirwtKN8Kymvl3NW2XiFyH7HRqFEj4ebmJtzd3cXw4cNlj+Awp9zVhakfBSSE+eR+UbfZ2h59oilft2/fLlxdXYWHh4coX768mDBhgvQ4lPx5v2/fPuHp6Sm8vb2Fo6Oj6Nu3r/QImdctr9Up6Y8CEsJ86oIQxX8cECK3ju3fv19tPPnz/fr166JmzZrC29tb2Nvbizlz5kjj3oR8z1PYRwFNmjRJdOnSxYgRmTd2bkswdZ3bvA+MlpaWwsPDQ/Tt21dcv35d7fwluXObJy4uTjx69Eg6KLyJ1B0csrOzxaNHj0RaWprJ4jKnA0txdW7zMG+1f8jXxNh5/ezZM7Vf/JhT7uqiJHRu87zpuW9I3gvx/7mf/5mjmkRFRUkdkjyvW16rYw6d2zxvel0QwvD6kF90dLR4+fKlbNibkO95Ctu5bdWqlahRo4YRIzJvvKFUCXb06FHZ+6SkJBNFUnRcXFyKdPlpaWl48OCBxvH29vbw8vIq0hh0dezYMTRp0gS1atWChYUFKlasaLJYLly4ID1rkVQxb/+fct4WxNh57ezsrDKMuVu0ijL3X9e8B/TP/fzbybwueXgc+H/61of88j/Gjfmun1GjRmHz5s1ITk6Gvb29XvOmtyqDuAAAIABJREFUp6fD2toaKSkpiI+PR6VKlYooyuLDzi291qKiojB58mSN45s2bWry5wOXLl0a3bp1w+7du5GdnW3wwcGYDhw4gGvXrqFjx46mDuWNxLw1HHPXfDHvNWNev3ne5PrAfNdP//79sX//fsyaNQsLFy7Ueb7Hjx+jatWqmDRpEpYtW4bMzExUq1bN7J8bz84tvdaqVq0qexh5SVS2bNkSF6MhjyMg42HeGo65a76Y95oxr988b3J9YL7rx8LCAmPGjIG/vz8SEhIwf/58ODk56TRveno64uLi8OjRIygUCjRp0gQbNmww+RcnhcG7JRMREREREZmptm3b4uzZs4iKioKPjw+GDh2KPXv24Nq1a3j58qXWeceNGwcHBwfY29ujadOmePz4cTFFXTR45vY19vLlS9y9excnTpwwdShEReratWuws7MzdRhEReKff/7Bo0eP4OjoaOpQiIrUq1evEBkZiaysLFOHQlRs0tLSCuyA6qJhw4b49ddf8ccff+Crr77C2LFjERcXh5ycHDg6OmLRokXSY8iUKd+/wtbW1uzrHzu3r7F79+7h2rVr+PXXX00dClGRSk1Nha2tranDICoSGRkZsLS0hKWlpalDISpSOTk5yMzMhLW1talDISo2z549Q2RkZKGXk5mZiaVLl+Kbb76Bq6srQkJC4OnpifLly8PS0hItW7ZUO59CoSj0uksSdm5fY/Xr10ebNm0wZcoUU4dCVKTCwsLQtWtXU4dBVCQiIiLg7e0NNzc3U4dCVKSSkpLw999/o1WrVqYOhajY+Pn54e233y7UMmJiYtCtWzc8ffoU69atQ8+ePY0Unflh55aIiIiIiMhMBQcHw8vLC4cPHy7yx1SVdOzcEhERERERmaHz58/j9OnTuH//vtrnv2vi5eWFnJwc2bAVK1YYO7xix7slExERERERmaFvvvkGVatW1atj+zrjmVsiIiIiIiIzVL58eSQlJZk6jBKDnVsjCggIgBACW7ZsUXksybp167B//37MmjULDRo0MGj58fHxCA4OxqZNm8z+kRCxsbFYsmQJwsPDkZycjNq1a2PixIlo1qyZyrT79+/HunXrMHv2bNSrV082rk+fPujUqRNGjRolG75hwwY8efJEp4dQBwcHIz4+XmV4q1atCrwZ18CBA2UNioWFBZydndG3b1+8++670vCEhAQsWbIEERERcHR0xIABA+Dv7w8g9wYaAwcOBJCbQ3369MGiRYtw9epV1K5dG6NHj4aPj4/Kup8/f47Bgwdj586dsLGxURuftvXmN3/+fJQtWxajRo3CtGnTcO3aNTg7O+OHH37Qug/eJMxbzXk7dOhQrdMnJibqlNfKtOX4zp07sW/fPmRkZKBfv37o06cPADB3iwhzPzeX1eV9Hk35GhERgfXr18vi6Ny5MwICAlTiS01NxXfffYfz58/D1dUVY8eORYMGDZjXJQjrgvrjgJeXl9q77trZ2WHBggVqY8jOzsbixYtx6tQp+Pr64qOPPkK1atWY73qqUqWKUR4l9LrgZclGdOjQIRw6dAhhYWEq4xYsWICDBw8iLi7O4OWnpaXh4MGDSE9PL0yYJnf37l00bNgQly5dwuTJkxEaGgp7e3u0bdsWBw4cUJl+0aJFuHPnDpYvX64y7vDhw/jkk0/wv//9Tzb81q1biIiI0Cme8PBw2NnZwd/fX/bS5c51R48ehbe3N/r164d+/fqhZ8+eKFOmDAICArBjxw4Aubdm79y5MyIiIhASEgIfHx8EBgZi586d0viDBw8iKCgILVu2RPfu3XHmzBkMGTIESUlJaNmyJWJjY2Xrff78OQIDAxEWFobs7Gy1sRW03vz74LPPPsONGzcA5H5oa9CgAcLDw3Xah28C5q32vC1oel3yWpm2HF+0aBEmT56M9957D++99x6GDx+O3bt3A2DuFgXm/v/ncv68z6MtXw8fPozTp0/D3t5eellZWamNb9iwYdi+fTsGDBgAV1dXtGrVCjdv3mRelxCsC5qPA23atJHluL29PQ4cOIArV65ojGHhwoXYvn07hg8fjjJlyqB169Z48uQJ850K58yZMyJPWFiYIMOVLl1adOzYUQQGBsqGX7p0SdStW1c4ODiIX3/9VRqek5Mj7t+/L54+fap2ebGxseLu3bsiJydHCCFEVFSUUCgUsunT0tJEVlaW2vm7du0q5s2bV9jNMrrOnTuLRo0aifT0dNnwyZMnC19fX5GdnS0Nu337trC2thbHjh0T9vb2IjExUTaPra2t8PPzEw0bNhSZmZmyZfXq1UuneLy9vcWqVavUjsvIyBAZGRmyYcr73NXVVfz0008q8w0bNkx069ZNCCHEqVOnhIODg0hNTZXGz5gxQ/j7+wshhHj27JlQKBQiKipK/PPPP8LT01Pcv39fCJGbIz4+PmLz5s3SvMePHxcVKlQQ7dq1EwqFQiQnJ0vj0tPTpf1Q0HrzxMfHC19fX9GgQQMxbtw4afgvv/wivL29Ne22EuXgwYNFvg5zylshtOeusfO2oOl1yWvl3NWW48nJycLFxUWcPXtWGrZs2TJZW2dOuauLy5cvi5iYGJOt35xyv6jb7Px5L4T2fBVCiL59+4rQ0FC18SrnfXZ2trC2tpa1Zw0aNBCzZ88WQrx+ea1OYmKiOH36tKnD0Mic6oIQxX8cUBYeHi4qVKgga7uU8z02NlbY2tqKy5cvS+P9/f3FrFmzhBBvRr7n8fX1FQcOHDB4/q+++kr07t3biBGZN565NbKgoCCEhYUhJSVFGrZt2zb0799fNt369evh5OSEDh06oFKlSqhT5//au/Owpq78f+Bv9l0gSkQjKosCBjekuGBdcKlVcak2ar+2o7Z1gW/rt061i+2MndZqa6e11tG21qWObRUFBxRxQaTUKo4o1IqKQhAJm+x7IoTz+4NfrglJSICwf17Pk+eBu5x7bvLJyT33nkWIhw8fAgDq6urw4osvws3NDTNmzECfPn0QHh6usj9jDK+//jrGjh2L4uLiNj8vQ5FIJIiJicGnn36qduf6ww8/xJUrV2Bs/DQsDx06hMDAQEybNg39+/fHkSNH1NL89NNPkZ2djW3bthk8v8eOHQOPx4NYLAbQ0BSSx+Ph/v37Te5XWlqKJ0+eAAD8/f2RkpKi0kytqqoKVlZWavsNGTIE2dnZXHPNx48fo7y8HO7u7tw2mZmZ+Ne//oV9+/ap7T9lyhRs2LChWcddu3YtXnvtNYwcObLJc+rJulrcAi2L3ZbGra7t9Ylr5dhtKsavXLkCJycnjB8/Hn/++ScSEhKwZs0ams+7jXS12G/vMhtoOl4BIDk5GW5ubvjpp58QGhqKkpISbp1y3BsbG8PDwwOJiYlcnh4+fAgPDw89z560pa72XQDa/3dAoaKiAq+++io+//xzlfm5leM9ISEBVlZWGDNmDLd++vTpiImJaf6JEqKE+twamKenJzw9PREVFQWRSATGGEJDQxEXF4ft27cDALKyshAcHIwLFy5g0qRJKC8vh7+/P/bt24etW7fiwoUL+P3331FYWAgLCwvs3r0bu3fvxtixYwEA9fX1CA4ORlJSEi5evNilRke7d+8eGGMYMWKE2jo7OzvY2dlx/8vlcvz444/45z//CQB45ZVX8O233yI4OFhlvz59+mDPnj1YunQp5s2b16JKWlhYGNLT07n/zc3N8cknn2D58uWIiorCq6++ih9//BFr167Fjh074O3tzW174cIFlJaWAmgo0BMTExEVFYXIyEgAgIWFBVxcXLjtU1JS8P333+OXX37Rmh/GGObOnYu4uDi8++67GD9+PLduxYoVAKCSX4Xt27dz/bH1Oe6hQ4eQm5uLX375Ba+//rpe71VP1NXiFoDO2DV03OqzfVNxrRy7TcW4RCIBj8fDjBkzUFhYiIKCAjg5OSE6Ohr9+vXT/80jeulqsd8RZXZT8VpeXg6xWIy3334b48ePh1gsxvr163H+/HkMHz5cJe4B4OTJk5g+fTpCQ0Px6NEjrFu3DosXL272+0MMr6t9F4D2/x1Q+Prrr2FhYcH1x1VQjve8vDw4OTmpvR/5+fnNfg8IUUZPbtuASCTi+iP89ttvEAgEcHNz49a7uLggJycHkyZNQn5+PpKTk8Hj8VBYWAgA6N+/P4qKivDee+8hPj4ea9euRWxsLLf/W2+9hdDQUMTExHSpii3Q0D8DAExNdd9XiY6ORnV1NTfoxl/+8hfcuXMHly9fVtt24cKFWLx4MVasWMEdozlkMhkqKyu5l/KT971790IsFmP8+PEYN26c2o9TSkoKYmJicOzYMWzevBlmZmb4888/MWPGDLXj/Pnnn5g5cybWrFmDOXPmaM1PXV0d1q5di61bt+K7777D6dOn9TqPSZMmafzh1XRcsViMDz74AIcPH4aJiYle6fdUXTFugaZjty3iVtf2TcW1tthtrLCwEFeuXMGyZcuQnJwMsVgMJycnvP/++zr3Jc3XFWO/I8psbWpra/G3v/0NV69exYkTJ3Djxg1MnjwZ69evB6Aa93K5HO+88w5GjhyJbdu24aOPPkJYWBh+/fXXZh+XGF5X/C4A7f87wBjDgQMHsG7dOrUBppTjvb6+Xm2gQHNzc63jiBDtWhI33Rr1uTUcMzMzFhcXx8RiMbOxsWGVlZVs3bp1bOfOnYwxxvW5ra+vZx988AFzcnJifD6fzZo1i40cOZK9/vrrXFqnTp1igYGBzNzcnPF4PLZ9+3auz+2ECRNY79692YEDB5rMT2fsc3vv3j1mZGTEfv31V7V1VVVV7MKFC1xfloULFzIjIyNmZmbGvYyMjNjy5cu5faysrFhMTAxjrKHvqLOzM/v73/9u0D4rjDH2zjvvMCMjI7U+EY37rPz000/M3NycXbp0SS2NuLg45uDgwD766COV5U31WWGMsU8++YQFBgaqLU9LS9PYv0vf4z733HNs5syZbPfu3Wz37t1s3LhxbPLkyezgwYOMsa7V36Wt+9x21bhlTHPstmXcatu+MW1xrUxTjB86dIjZ2dmpbHfkyBHm6urK/d+VYlcfHdnntqvGfluV2U2V1/qWyWFhYWoxzBhjly9fZnw+n0mlUm7ZZ599xvVv7G5xrUln7nPbVb8LjLXv78C5c+eYra0tKy0tbTJPERERbNCgQSrLdu/ezXx9fRljPSPeFVrb5zYgIIANHz7cgDnq2ujJbRtwdXWFUChEREQETp48CZFIpLI+NDQUe/bsQUxMDPLz8xEdHQ2BQADGGICG/miurq64ePEiioqK8Mknn+C9997DgwcPADT04f3qq6+wYcMGZGVltfv5tYanpyeGDh2qse/J0aNHsXDhQkilUjx+/BhRUVE4c+YMCgoKuNf+/ftx4sQJ7im3Mh6Ph7179+LTTz/FzZs3DZbnW7duYdeuXViwYAE2bNigdldU2UsvvYSVK1dCJBKpNK2Jjo7G/PnzsWvXLvztb3/Tuv+1a9ewevVqlWV8Pr/Fn3NTxx0yZAhsbGxw8eJFXLx4Ebm5ucjKysLvv//eomN1Z10xbgH9Y7e1catre0PGtbu7O2pqalBdXc0tk8lkcHZ2bnZaRLeuGPvtWWbrkpiYiDfffFPlaVRpaalac0ygoVmzvb09LCwsuGWDBg3ifvtJx+qK3wWg/X8HwsPDERQUBHt7+ya3c3d3R25uLsrKyrhl9+7dg4+Pj55nRhQsLCzw0ksvdXQ2Og2q3LYRkUiEzZs3QygUqvUDy8nJgampKTeYSnx8POLi4rhmBWfPnsWzzz6Lhw8fwtbWFiNHjoSJiQlXUJibm+Pll1/GhAkTumQ/yc8++wz79+/HRx99BIlEgrq6OkRERGDDhg14++230atXLxw+fBj9+vXDc889B3t7e+61bNkyWFlZ4cCBAxrTXrBgAUQikUoz7taQSqVYvnw5Vq1axQ3EoBgMQZsdO3bA0tISb731FoCGz3vp0qXYtGkTJkyYgPT0dKSnp2u8sO/Xrx+OHDmCH3/8EYwx5OfnY9euXXjhhRf0yu+5c+dw/fp1vY77zTffIDw8nHsFBgZizpw5WgdF6em6UtwCzY/d1sStru31iWvl2G1KQEAAhEIh/v73v6O+vh7l5eXYu3cvgoKCmvkOEX11pdhv7zJbl969e+P777/Hnj17wBjD48eP8eWXX2LlypUAVON+8uTJyM7O5qZhqaiowN69e7XOTU7aX1f6LgDt/zsAAHfu3NHaxUQ53oVCIfz9/fHVV18BADIyMnDixAm88cYbLT3dHokxhgcPHmDw4MEdnZXOg5olG46iWTJjjD169IgZGxuzffv2cesVzZKLi4vZ2LFjma2tLfPw8GDTp09nGzduZH5+fowxxurq6tirr77KTE1NWf/+/ZmjoyM7ePCg2lRAjx49Yr169WLff/+9xvx0xmbJCkePHmXu7u5csx1HR0f26aefctMeDRs2jG3evFnjviEhIczd3Z3V19erNOtRKCoqYv369TNIs57169czLy8vVlVVxRhj7M6dO8zKyopFREQwxrRPKxEZGcmMjIxYVFQU++CDD5iRkZHaS9GEpHGznvDwcNa3b1/Wt29fZmdnx9asWaMyDL+CpiZw48eP56bz0XXcxlauXElTAenQVeKWsaZjty3iVtf2uuJaOXYVtDXzTE1NZX5+fozP57O+ffuy1157TWUKjq4Uu/ro6KmAGOs6sd/WZXZLmiUfO3aMOTk5sX79+jFHR0f21ltvcdOhNI77iIgI1r9/f+bi4sIcHBzY4sWLuSlkultca9KZmyUrdJXvAmPt/zvAWMN3LDIyUmN+Gsd7SkoK8/LyYi4uLszW1pZ9+umn3LqeEO8KrWmWnJqayoyNjVlubq6Bc9V1UeW2A+Xm5rLy8nKt6ysrK1lWVhZXYDZXZ67cKhQUFLTqHLsDTT8OcrmcZWVlqfS9am9d6YelvSq3ChS3uvuKa2LouC4sLNR446crxa4+OkPlVqGnx35L4p6xp7HfeM5RbSQSCVchUehuca1JV6jcKvT07wJjLf8+NJaTk8MqKipUlvWEeFdoTeX2iy++YFOnTjVwjro2mgqoA+nqI2ZjYwMbG5t2yk3H6NOnT5umL5VKkZmZqXW9ra0tBAJBm+ZBXzExMfD394e3tzeMjY0xYMCADstLQkICN9ciUUdx+5Ry3Opi6LjWNFo8xW7basvY765xDzQ/9hufJ8V150O/A0819/vQWOPuexTv+snMzMS2bdvw008/dXRWOhWq3JJuTSKRYOPGjVrXjx07Fps3b27HHKkzMzPD3LlzERYWBrlc3uIfB0M6deoU/vzzT0ybNq2js9IjUdy2HMVu10Vxrx3Fdc/Tk78PFO+6ZWdnY/78+QgKCqJ++Y0YXb58mQUEBAAAzpw5g9mzZ3dwloihzJ07F5MmTcKmTZs6OiuEtKmoqKgWzUFJSFdw48YNuLi4gM/nd3RWCGlT5eXluHXrFiZOnNjRWSGk3bi5uWHXrl2YO3euXtvfu3cPCxYswIABAxAREdHtW3k2Fz257cbkcjlqampQWlra0VkhpE1VVVVRnJNuq6KiAmVlZTA3N+/orBDSpmQyGRwcHKg8Jz0K+/9TgWpTUlKCuLg4FBQU4MaNGxCLxZgyZQq++uorWFlZtVMuuw56ctuN+fr6Ijk5uaOzQQghhBBCCNHAxMREZS5sfRUVFcHR0VFteWpqaouaiO/evRvBwcEa140ZMwZJSUnNSm/ixImIj4/XuG7Hjh145513mp3HR48e6Ry/gCq33VhlZSU3dy4hhBBCCCGkc5FKpejTpw/MzMw6OivdAjVL7sZsbW07OguEEEIIIYQQ0i6MOzoDhBBCCCGEEEJIa1HllhBCCCGEEEJIl0eVW0IIIYQQQgghXR71ue3m3n//fXzxxRctGoWNkM4uLS0Nrq6uiImJwbx58yCTyTo6S91GRkYGBg4c2NHZIIQQQgjRG1Vuu7n6+np4enpi2rTAjs4KIQYjlUrx/ff7uHk/GWOwsLDA6tWvd3DOur6amhrs2/cDjdpICCGEkC6HKrc9gLm5GXg8XkdngxCDqa6uBtAwN5yCsbExxbkBVFVVAVB9bwkhhBBCugLqc0sIIYQQQgghpMujyi0hhBBCCCGEkC6PKreEEEIIIYQQQro8tT63CxYsAGMMP//8M2xsbFTW/fDDD4iMjMSWLVvg6+vbZpkqKirCypUrcfjwYTg4OBg8/e+++w6nT59GZmYmvL29sXjxYrz44osAgK1bt+LatWta942MjIRIJIJUKgUAGBkZwdbWFtOmTcPLL7/c5CAsH374IVxdXbFq1aoWp0EIIYQQQgghRJ1a5fbMmTNgjCEqKgoikUhl3Y4dO/DgwQOEhIS0aaaMjY3h4OAAIyMjg6f93nvv4dixY9i0aRNcXFxw7949rF69GhkZGdi0aRNGjx7NVajPnTuHW7duYePGjSppnD17FkuWLMGoUaNQV1eHgoICfPzxx/jhhx8QHx8PU1PN43Rdu3aNm6qkpWkQ/SQmJuL+/QcoLS2Fk5MThg3zhlAoBADEx8dDIsnWuu9LLy0DAMTGXoKDgwN8fUcjNPQ46urqADTcjDA3N4erqytGjhzBDbwjk8kQFhYOAPDy8oKv72guzZqaGpw8+R+IRC+qfLb19fW4ejUBmZmZcHR0hL//M+jdu7fGfEmlUly9ehW5uXng853g5+cHBwcHXLwYi/z8fFhbW2PBgvmteNd6rtbGi3KsAGhxvEilUiQkXENOTg6srCwxfPhweHh4aDxuU7FDMUEIIYSQnkhjDWry5Mk4ceKESuU2MTER5ubmsLW1VdmWMYZHjx7B0tISffv2VVknk8lgYWGBoqIimJiYqDyFbWqdo6Mj9u3bBwsLC5Vtq6qqUFRUpHHuRUU+XFxcwBgDY0xjBfHQoUP49ttvMX9+wwXfnDlzIJVKsXv3bmzcuBGzZ8/mti0tLUVeXp7GyvysWbOwaNEi7v8NGzbA19cXn332GTZv3qzpbW2TNIi6mJiLuH37NgICAmBv3wuFhYU4deo0SkpKMXFiAPr16wdLS0sAQFpaOvLz8xEQMEEtHYlEArm87v9vlwYfHx84O/dFfX09qqurER8fj5s3b2LVqpUwNjaGXC7H/fv3sXDhQggE/bl0ampqEBp6HBkZGaivr1c5xpUrV3Dnzl1MnjwJWVkSHDhwEGvXroGdnZ1afn7++RcYGxtj7Fh/iMVi7N9/AGvXroGXlydMTIxx82aSId/GHsMQ8aIcKw3bNT9e5HI5Dh/+N2xtbeHnNwYSSTZCQ49j/vx5XEVbWVOxQzFBCCGEkJ5IY59bkUiEqKgobkoIADh69CiWLVumst3+/fvB4/EQGBiIgQMHQigU4uHDhwCA7Oxs2NraIiQkBBMmTMDIkSOxcOFC1NbWNrlOsa+VlRXy8/ORnZ0NBwcHfPjhhxAIBPD29saoUaOQm5vL5SM8PBwuLi6YOXMmPDw8sHTpUqxevVrjCfP5fBw9ehSVlZXcso0bNyIpKalVT4p5PB7WrFmD8PDwDk2DAMnJyZg16zk884wfhg4digkTJmDChPH473//C8YYhgwZAn9/f/j7+2PAAAFsbGy4//39/bWm6+HhDn9/f4wbNw6BgYFYs2Y1KioqcPnyZZXtXF0Ho0+fPgCAjIwM/Otfe8AYU0uvqqoKcXG/Yu7cOfD09MT06dPg7OyMGzduAADkcjlXGS4qKkJJSQkWLJgPb29vzJ49G8bGxkhLS4dAIICzs7Nh3rweqLPEi0QiQWFhIUSiFzF06FAEBk7F+PHjuQqqcjzoih2KCUIIIYT0RBort56envD09ERUVBSAhqeioaGhWLp0KbdNVlYWgoODERERgfT0dBQUFEAul2Pfvn3cNnK5HHV1dbh37x5SU1NRVFSELVu26FzXmEwmQ0FBAbKyspCfn48nT57gwIEDAIDMzEyuf25qairOnDmD8+fPaz3hH374AXFxceDz+Zg5cya2bt2KjIwMrU1Bm0MoFOLu3btqT+faO42ezsbGBrdvp+DJkyfcsoCAAKxdu8agTd2trKzg5zcGd+/e07pNaWkZ5syZjXnzgtTWSSQSmJmZoX//p0953dzcIBZnAAAOHjyEc+fOAQB69+6Nv/51A9fCoaqqCjKZDDyeo8HOp6fqLPEiEAgQEhKs0uKktvYJ1wdfOR50xQ4hhBBCSE+kdbRkkUiE48ePAwB+++03CAQCuLm5cetdXFyQk5ODSZMmIT8/H8nJyeDxeCgsLFRJ5/3334eRkREsLS0REhKCM2fO6LWusTfeeAN2dnawtbXF2LFjkZ3d0AcuNjYWw4cPR2BgIICGvmuN+wore+aZZ5Ceno4ff/wR7u7uOHToEHx8fLBjx46m3ie9MMYgk8m4J9AdlUZPN29eEB4+fIjPP9+Bw4f/jfj4eJSUlMDa2trgx+Lz+SgoKND4ZBYARo8eBW9vb43rKisr1fJkbW3NtSqYMWO62sBtjDH89NPP+PrrXRg/fhxcXFwMcBY9W2eJF1NTU9jb23P/P378GImJN7h+vMrxoCt2CCGEEEJ6Iq2V2yVLliA6OhpVVVU4evSoylNboOEie+fOneDz+RgxYgS2bduG6upqtYu2AQMGcH87OztDLBbrta4x5SerVlZW3GAt6enp4PP5Kttqa45XWVmJlJQUWFtb48UXX8TevXvx4MEDfP/993jnnXfw6NEjrcfXR1paGgYMGMD1Fe6oNHo6gUCA9evfxMKFC8Dj8ZCc/Af27NmL33//3eDHYoxBLpdDLpe3aN/G/cJNTEy479CgQYPU+rHX19fDz28MAgMDkZh4A/fv32955gmAzhkv+fn5+Pe/j8DPr6GpNKAaD7pihxBCCCGkJ9I6JK+rqyuEQiEiIiJw8uRJ3Lx5U2V9aGgo9uzZg0uXLmHEiBEAGgZnanxxlZeXB4FAAKChCfETVEkQAAAe50lEQVSwYcP0WteYtuaBAwYMwKlTp1SWpaencwPANF7u5+eHnJwcODk5cctffvllhISEICMjQ+NgVfqor6/HkSNH8Nxzz7Vof0Ol0dM9efIEpaWl4PP5EAqF3EA8SUlJiIiIhI+Pj8rTsdYqLi5Gr169YGpqqtKsVR92dnbcdFAKUmmNxthVMDExgaenJ4CGJqtXryZwlR/SfJ0xXh4+fIijR49h3LhxmDJlssZtWhI7hBBCCCHdndYnt0BD0+TNmzdDKBSiX79+KutycnJgamoKd3d3AA3TZcTFxak1p926dSsYYygtLcXOnTvxwgsv6LVOXyKRCJmZmfjmm29QU1ODU6dOaR2QaeTIkRAKhQgKCkJCQgJkMhlyc3Px17/+FQ4ODpgwQX3EXG1yc3ORnp6Ou3fvIiYmBkuXLkVWVhbefffddk2DqCouLsa3336nMhga0PDZm5qaoqSkxGDHYozh1q0/4eHh3qL9HR0dUVlZqVJJKSwsUmuJADT0sWx8E8fGxgZlZWUtOjZp0Nni5cGDB/jll6N4/vlZWiu2QPNihxBCCCGkp9BZuX306JFak2QAWLFiBVxdXeHs7IwhQ4bg448/RkhICFJSUlS2KygogEAggJeXFyZOnKgyZ2xT6/TF4/Fw/vx5HDlyBM7Ozti7dy9mzZoFc3NzjdvHxcXBxcUFzz//PKytrTF48GAkJSXh999/5wZu0cebb76JIUOGYPjw4XjllVfAGEN8fLxKv+T2SIOocnZ2hpOTE37++RdIJBLU1dWhoqIC586dh6WlZav6qFZUVKK4uBgFBQUQi8U4fvwEysrKMHHixBalx+fzIRAIkJCQAAAoKSnBnTt3MHZswwi8aWlpXN9yOzs7/PHHLSQnJ4MxhsrKSly79l8MG6a5Py/RT2eKl4qKCpw4EYaAgAC4uLiguLgYxcXF3A0M5XjQFTuEEEIIIT2RWrNk5aZyLi4uan3DysvLub8TEhKQl5cHGxsbjfNyAsDu3bthaWkJCwsLtSZz2tYJBAKV0YIbjxy8Z88e7u+srCyUlZXh2rVr3LKgoCC1vooKDg4O3EBZubm54PF4Wvu3bt68WeN8s8rvQXMoj+Lc0jSIbitXrkBk5CkcOfITZDIZjI2NIRAI8Oqrq2BiYtLidKOjoxEd3dBE3sbGBgMHDsSqVSvh6NjyEYuDgubi2LFQ3LyZBKlUimefnciNgBsX9ysEgv4QCASwt7fHokUv4PTpKFy4EIPa2lqMGDEcU6ZMafGxSYPOEi/XrydCJpMhNjYWsbGx3HI+n4/g4HUq8QA0HTuEEEIIIT2R1j63+tJnLsWm+qy1tj9bXV0dgoKCsH37dkycOBGxsbGIj4/Htm3bdO7buKk16R4sLS0hEr0IoOFpmJWVldrgOwqTJk3CpEmTNK575ZWXub/ff/+9VuWJx+Nhy5a/qy13cnLC//5vCCoqKmBhYaHS4uC1115V2dbb2xteXl6oqKiAtbW11nMizWOIeFGOFaBl8RIYOBWBgVO1rm8cD03FDiGEEEK6B5lMhtTUVGRnZyM1NRX/93//19FZ6tSabJbcGpaWlpg7d67Gp6JNrWsuV1dXREZGIiYmBuvWrcP9+/dx4cIF+Pj4tDpt0vXZ2dm1eyVQLBajoKCgWfvY2dnpVTkxMjLiBiRSkEgkyMnJbXY+ibquEi/KNMUOxQQhhBDSPVy5cgX/+c9/kJaWRg/m9NBmV3G9e/dGZGRks9e1xMyZMzFz5kyDpUdIS5iYmGDo0KG4c+cu6uuZyojcbSk19T7y8/Opr3YX05bxQjFBCCGEdA9Tp07F1KnaW3YRVdSukRADsbCwwEsvLWv3406bFtjuxySt15bxQjFBCCGEkJ6ozZolE0IIIYQQQggh7YWe3HZzYrEYt2+n4N691I7OCiEG03gE9ezsbFRWVuKzzz7voBx1H43fW0IIIYSQroIqt93crl278MEHH3R0NggxqPr6ehQXF6NPnz4AgMWLF8PX17eDc9U9KN5bHo/X0VkhhBBCCGkWqtx2Y3fv3sXcuXO5CgAh3YVMJsP69eu5kY1dXV3Rr18/WFlZdXDOCDEMuVyOgQMHIjw8nFsWFBSEtLQ09OrVqwNzRojh1dfXQy6X4+bNm9yy0aNHQy6XU7luADU1NYiOjubmSd+0aRNOnDjRbgNfAgBjDDKZDNevX+dG+H/22WdRUlICGxubdsuHXC7HoEGDEBYWBgDIy8tDQEAAevfuDSMjo3bLh0wmw4IFC7Bly5Z2O2ZPQZXbbqyiogISiQSjRo3s6KwQYlBXrlxFRkYG9395eTl8fIT0tJF0G48ePUJSUpLKsnv37oHHc8SAAYIOyhUhbaO0tBTx8b+pLLt37x7Gjx8HR0fHDspV91BbW4fTp0+jurqaW/bgwQNYWlq2a1lSVVWF8+cvoK6ujqvcpqamYujQoejbl99u+Xj0KEvlJopUKkVGRgZ8fHxgamrSbvlITv4D9+7da7fj9SRUue3mjI2NMXIkVW5J93L7dgr4/Kc/hsbGxvDw8ICLi0sH5ooQw5LJnqj8b2pqikGDBtE87qTbyc3NxeXLv6ssMzIywpAhQ7injaRlZDIZTp8+rfIE3NjYGM7Ofdv1+rC4uBjnz1+AsfHTsWyNjY3h7u4Gd3f3dssHYISamhq1pcOH+6jNGd+WJBKJynUMMRwaLZkQQgghhBBCSJdHlVtCCCGEEEIIIV0eVW4JIYQQQgghhHR5zepzu2DBAjDG8PPPP6uNbPbDDz8gMjISW7ZsadMpOYqKirBy5UocPnwYDg4OBk17+fLlKC8v17juyJEjOkeofPz4MWpqajBo0CCN6z/88EO4urpi1apVEIlEkEqlABr6ldja2mLatGl4+eWXYWZm1roTIYR0GeHh4ZBKZRrXLVr0AsrKyhATcxFTp05Bv379uHW1tbU4deoUhEIhPD09ERt7CQ4ODvD1HQ0ACA09jrq6OgANZYy5uTlcXV0xcuQImJiYQCaTISysYSReLy8v+PqOhlQqRULCNeTk5MDKyhLDhw+Hh4cHd8z6+npcvZqAzMxMODo6wt//GfTu3bvJ86upqcHJk/+BSPQiN7o10DCIx9WrV5Gbmwc+3wl+fn5wcHDAxYuxyM/Ph7W1NRYsmN+yN5UQQgghPVKzKrdnzpwBYwxRUVEQiUQq63bs2IEHDx4gJCTEoBlszNjYGA4ODm0yXPf58+cxe/ZsPPPMM2rr9OlkPmHCBHz99ddaK7fXrl2DTNZwEXv27FksWbIEo0aNQl1dHQoKCvDxxx/jhx9+QHx8vMpFIGkeQ1QW8vPzIZFkaz3GSy8ta3ZlAoBahWLYMO8mKxO1tbVISEhAVpYENjY28Pd/RiXPynRVTBQaVzaoMtGx0tLSMXToEPTv319tnYmJCfh8PiwtLXHiRBjWrFnNlUVnzkSjqKiY+4wlEgnk8jqldNPg4+MDZ+e+qK+vR3V1NeLj43Hz5k2sWrUScrkc9+/fx8KFCyEQ9IdcLsfhw/+Gra0t/PzGQCLJRmjoccyfPw9CoRAAcOXKFdy5cxeTJ09CVpYEBw4cxNq1a2BnZ6fx3GpqahAaehwZGRmor69XWffzz7/A2NgYY8f6QywWY//+A1i7dg28vDxhYmKMmzeTNKZJure2uNnTkrJZUa4DTd+g0afMBYCcnBy10a/d3d2RnZ1D5a8BddTNQqDpGAKAy5d/h4WFBZ55xk9j/rTdPGyv3+jmfmcA3e+3hYWFXsdunI6RkRGsra0xbJg3hgwZgvj4eJ3XZPqkYygtudFL2k+zmyVPnjwZJ06cUFmWmJgIc3Nz2Nraqm3PGENmZiby8/NVlisqeUVFRSgtLVXbT9t6R0dH7Nu3D/b29irbVVVV4dGjRxrzrMiDYh41xRdWkxkzZiAkJETtZWlpidraWtTW1qrlUy6X48mTJ6iqqsKTJ08gl8u1pq9s1qxZCAkJwfr16/HJJ5/gxo0byMnJwWeffabX/kSztLR0WFtbwcPDXe3VuLLw5MnT0UiVKwv9+vXj9gGA/Px8lXSAhspEUVGh0nHTYGtrCw8Pd7i6DoajowPi4+Nx8OAh7sJeUaEQCoUYMECAw4f/jZycHPj5jYG9vQNCQ48jJSWFSzMyMhK3b6dgxIjhsLGxxv79B1BQUKB2zoqKSVNpAU8rG/fv3+fy5OXlif79+0EsFhvk/SfN5+bmBn9/f7WX4kJ69uznIZfLER19FgBw82YS7ty5g8WLF6lcaDTm4eEOf39/jBs3DoGBgVizZjUqKipw+fJlbhtX18Ho06cPJBIJCgsLIRK9iKFDhyIwcCrGjx/PVTKrqqoQF/cr5s6dA09PT0yfPg3Ozs64ceMGgIYYVK7AZmRk4F//2gPGmFq+ioqKUFJSggUL5sPb2xuzZ8+GsbEx0tLSIRAI4Ozs3Nq3lHRRhii/AdXyubll88CBT0dd11RmKrbXp8xVePAgDZmZj2Bubs69TExMqPw1sLaIn4Z0Wx5DACAWi3Hx4kUUFqr/fitcuXIFKSkpGDPGF2ZmZjhw4CAqKiraLUaa+51p2K7p91tfaWnpsLe3h4+PED4+Qnh5ecLMzAxHjx7D7dspel2T6ZOOoWj7rEjn0OzHgyKRCG+99Raqqqq4pslHjx7FsmXLsH37dpVt9+/fj7fffhs8Hg8SiQQeHh6IioqCmZkZBg8ejNWrVyMmJgZSqRS+vr4IDQ2FmZkZsrOzta5//PgxXFxckJubi7q6Onh4eODtt9/GN998g9raWgwZMgTR0dHcHbnw8HC8+eabsLGxQW1tLcaMGQM7OzscOHCg2W/WsWPHsG7dOvzxxx9wc3PD8ePHsWLFCiQmJuLdd99FQUEBVq9ejaysLLz55pvNTp/H42HNmjU4ceIENm/e3Oz9yVNubm4YMWKE1vWzZz+Pb7/9DtHRZzF//jyusrB27RqYmJio3OGTSqWorKyEv7+/zuN6eLhj2LBh3P/jx4/Ht99+h8uXL2PSpEncclfXwSgpKUFhYSFWrVoJU1NTDB06FEZGRrh5MwlCoRCMMdy5cxdLlogwdOhQ+Pj4ID1djLt378HJyQlyuRxGRkYwNjbmKiba0gIaKhthYeHo06ePSp4FAgEVyp2cpaUlXnhhIQ4d+hF9+/bFxYsXERQU1Oz5H62srODnNwZ37tyFn5/q0wOBQICQkGCVJ1O1tU+4bhISiQRmZmYqT5jd3NyQmpqKKVOm4ODBQxAI+uP5558HAJSWlmHOnNno27cvdu36RuVYvXv3xl//uoH7v6qqCjKZDDwezWdJWl9+a9KcslnRBUlbmQlAZ5mrXD4DDRfjPj5ClWMpUPlrWG0RP0DLYghouEESGXlK7aadcowobh6uWrUS/fv3h6enJ3Jzc3Hjxg1MmTKlQ2JE3/PV9X7ry8VlgEo6o0cDdXW1uHXrFvdkFtB9TdZUOj4+wlbnU9dnRTpes5/cenp6wtPTE1FRUQAanoqGhoZi6dKlKttlZWUhODgYERERSE9PR0FBAeRyOfbt2wcA3BPUe/fuITU1FUVFRdiyZQu3v671CjKZDAUFBcjKykJ+fj6ePHnCVVwzMzO5/rmpqak4c+YMzp8/3+T5HTx4EMHBwSqvb75puDBbvnw55s6di1dffRWPHj3C2rVrsWPHDnh7eyMiIgJ8Ph+HDh1qUcVWQSgU4u7du2pN+IhhKSoLf/zxBxISriE6Ohpz5swx+GTxisrE3bvqE3XrqkwYGRmBx+MhJycXQEOBXlpaCh6PBwA4ePAQzp07p1dawNPKxrx5QQY9R9J6SUnJiIqKUnldu3ZNZZuBAwfi2Wcn4uzZsxAKh2HEiOEtOhafz0dBQYHaE1VTU1OuRQzQMIZAYuINrmldZWUlrK2tVfaxtrZGZWUlAGDGjOkq4y2MHj0K3t7eTeaFMYaffvoZX3+9C+PHj6N5ioleDFF+N1U2KzRVZuoqc5XLZwDIy8uDo6Mjbt26hdu3UzTOs0nah6F+//WJIQA4deo0fH194ezcV2W5coxou3koFmc0K09tSd/zNaSaGqnerSHbIx2ga3xWPV2LOnaKRCIcP34cIpEIv/32GwQCAdzc3FS2cXFxQU5ODnr37o38/HykpqaCx+OhsPBpM4/3338fRkZGsLS0REhICLZv346tW7c2uT44OFgtP2+88QbX52vs2LHIzm5olx8bG4vhw4cjMDAQQEMfCJFI1GSAW1paqjWvVp74eu/evRg5ciTGjx+PcePGacxPazDGIJPJUFtbq3dfBaIuKSkZWVlZKsv69OmDsWPHcv8rVxZGjRrZ4sqCLnw+H7/+Gq93ZWLx4kXcsqVLl+Dw4X8jJSUFZWVleOYZPwiFDXdSZ8yYDktLS73TGj16FICGidRJ52JqaqrWr9/UVH1guaqqagBAWVk5GGMtGnuAMabWhLix/Px8HDnyE/z8/DB06FBuv8ZjAZiYmHBxrW2sgabU19fDz28M3NzccOXKFfTr1487Hum52qv81lY2KzRVZuoqc5XLZ5lMhpKSEpw/fwEDBgxASUkJzp49i5dfXo6+ffuqpU1apz1//3XFUFJSMiorKzFxYgBOnTqlsk45RnTdPOwslM9X8fujz/utD7FYzA20KpM9QU5ODh48eIBly5bq2LNt0tGmq3xWPVmLKrdLlizBJ598gqqqKhw9elTtqS3QcCG0c+dOfPfddzAyMoKvry+qq6tVCoABAwZwfzs7O6v1J9C1XkG5E7eVlRXXpzY9PR18Pl9lW2dnZ67yq8myZcvwP//zP1rXOzg4YNmyZfj888/x3Xffad2updLS0jBgwACq2LZSe1YWdFFUJpq6qaKpMlFfX48LF2LQt29fjBnji6KiYly/fh0eHh5wdXXVWpnQlBbp3IYP99HZrOv27dtITk7GkiUihIefxJUrVxAQENDsYxUXF6NXr15am989fPgQR48ew7hx4zBlymRuuZ2dHXfBoCCV1nAXZy1hYmICT09PAA1Pva5eTaCYJe1WfutTNutDU5mrXD7L5XJMnjwZo0ePgr29PRhjCAsLQ3T0WaxY8ZdWHZuo64ibhZpiqKSkBLGxsVi1aiXXPF2ZcozounnYWSifryK/+r7fujx+XACpVIbq6mpkZWVBKBQiOHgd11qtvdPRpqt8Vj1Ziyq3rq6uEAqFiIiIwMmTJ3Hz5k21bUJDQ7Fnzx5cunSJu2ibM2eOyoefl5cHgUAAoKEJsXLbfn3WK2grkAYMGKB2pyw9Pb1VF2O3bt3Crl27sGDBAmzYsAFTp05Vmxapperr63HkyBE899xzBkmvJ2vPyoIuisqEqampygAWCtoqExKJBFlZWXjrrf/jCtL6+npcvvw7XF1dNR5LW1qkaysuLsapU6cxY8Z0eHt747nnqhEdHQ03Nzeto2drwhjDrVt/qgzAoezBgwc4cSIMs2c/j5EjR6qsc3R0RGVlJaRSKVeGFhYWqd1A1IdEIkFSUhKCgp4297SxsUFZWVmz0yLdT3uV37rKZn3oU+ZaW1urrDMyMoJQKMTJk/9p0TFJ0zriZqGmGDp9Ogp8Ph8PHjwAABQUFMLExARJSclcqwCFtrh52BaUz1dBn/dbH+PGjeXSuXXrT0RERMDPb0yzK6WGSkebrvJZ9WTN7nOrIBKJsHnzZgiFQo0XVzk5OTA1NYW7e8NFVHx8POLi4lRGG966dSsYYygtLcXOnTvxwgsvqKSha70+eczMzMQ333yDmpoanDp1CuHh4U3uk5eXh/T0dLVXVVUVpFIpli9fjlWrVuH48ePg8XjYsOHpoCgWFhaQSCRNjsasLDc3F+np6bh79y5iYmKwdOlSZGVl4d13323WeZLmU68sPIfY2EvIzc016HH0qUz88stRPP/8LLULo+LiElhYWKj8iDg42GttVtxUWqRzq6ysRHFxsdrryZMnqKurw/HjJzB48GCumZef3xgMGTIEYWHhaiO4K6uoaEi3oKAAYrEYx4+fQFlZGSZOnKhh2wqcOBGGgIAAuLi4cHlQVDj5fD4EAgESEhIANDyVuHPnDsaObRjUIy0trclWMcrs7Ozwxx+3kJycDMYYKisrce3afzFsWNN9dAkBDFN+6yqb9aFvmZuTk4Po6GiVrgA1NVKD3RgnzWOo339dMdS7d2+YmZlBLM6AWJyBiooKlJeXqzXhBVRvHiq09OZhWzHEd0ZfI0YMx+jRoxAaerxVzX0NlY6yrvBZ9XQtnkxVJBJh06ZNWkf1XbFiBY4dOwZnZ2c4Oztj8ODBCAkJwaVLl7htCgoKIBAIUF9fD5FIhI0bN6qkoWm9vhdPQMPow+fPn8cbb7yBDz74AAEBAZg1a1aTc9Zu3LhRLR8AcPLkSVy6dAm1tbX4/PPPYWJigoMHD2LMmDGYM2cO5s2bh0WLFiE4OBh3797Fzp07deZPMfCUsbEx+Hw+AgICEB8fr9Z/mTSforLQmK2tLYyNjTVWFtLS0hAWFo41a1arDMTUHIrKhFwuR0VFBRITb6CsrAxLlog0bKtemQAamrfY29tj8OBBiIqqwO3bKfDxEUImk+H69UTuhyUtLQ1WVlbcaMdNpUU6t/PnL+D8+Qtqy5cuXQKxOANVVVV45ZWXVdbNmxeEvXu/xblz5zF37hyN6UZHRyM6uuFJkY2NDQYOHIhVq1bC0dER1dXVKttev54ImUyG2NhYxMbGcsv5fD6Cg9cBAIKC5uLYsVDcvJkEqVSKZ5+dyA2qERf3KwSC/lxrm6bY29tj0aIXcPp0FC5ciEFtbS1GjBhOI00SAG1TfjenbNaHrjJXuXy2srJCYuIN8Hg8+Pv7o7q6GlevXsWoUaN0HIW0RFv9/jc3hmbPfl7l/4iICJibm3MjyivHiPLNwylTpnA3D5VHCW5v+p5vU+93U9fbusyYMQP37z/AuXPnsGjRIt07tHE6Cp3xsyKqmlW5VW5y4eLiotbHoLy8nPvb0dERCQkJyMvLg42NDTfgEwCugrp7925YWlrCwsJC4+N8TesVlV2FxoOi7Nmzh/s7KysLZWVlKqOOBgUFaR3A4fHjx9pPHsD8+aqTZ3t7e6tcIH7xxRf4xz/+ofXLrDxSs/J7RQyvrSoLujRVmWhMV2XCwcEBixcvwunTUTh//jyePHkCNzc3TJ8+HYBqZUKfignpnDZtUr+ZpszLy0vtIgloaOqoPJ1O43h+//33mpWPwMCpCAyc2uQ2Tk5O+N//DUFFRQUsLCxUyrrXXntV4z48Hg9btvxdbbm3tze8vLxQUVEBa2trtT5MpOdqi/K7OWWzPnSVucrls6OjIxYuXIgzZ87gt98uo66uDqNHj8Kzz6q3oCCt1xE3C1ui8Q3Bpm4edgR9z7ep99vLy6vFx7ewsMCcObPxyy9HMWLECJUpGluTjiF0ts+KqGrzq4nG83o1puupUmueOtXV1SEoKAjbt2/HxIkTERsbi/j4eGzbtq3FaerSeAQ10v4MVVlQmDRpksa5CdujMqGYequ8vBxWVlYqd5SVKxP6pKWgrbJBeiaxWAyBQAAnJye991G+WdkaRkZGKvNBAg39cRXTX5Gepy1u9jS3bG5MU5mpq8xtfLPHx0cIoXAYKioqYGNj0+R8qqTlOsvNQk0aPyBpHCNN3TxsDy35zuh6v/WlLR1PT0+17562azJ90/njj1utyGmDjv6sSNNa3Oe2NSwtLTF37lytIwLrWq8vV1dXREZGIiYmBuvWrcP9+/dx4cIF+Pj4tCpdQlpLLBajoKBA7+179erV4qbSulBlomcyMTHB0KFDcefOXWRlSTo6O5zU1PvIy8uj7hmkQzS3bG4Oxc0c5Yotlb/dT2tjyM7OTqWyRDHSeTX+rEjn0CHtwHr37o3IyMgWr2+OmTNnYubMmQZJi5DWUq5Q1NezZj0tayupqfeRn59PlYkexsLColP2EZo2LbCjs0B6oI4qm6n87T7aKoYoRghpHurkREg76owVCqpMEEJ6uo4qm6n87T7aKoYoRghpng5plkwIIYQQQgghhBgSPbntxvLz82FiYoKjR491dFYIMajG/ZlMTU1x8WIsTaJOuo3y8jLY2NiqLKuqqkJCwjXcvp3SQbkipG3IZFK12S/MzMwQE3Ox1eOv9HSM1asty83NRUZGBvLy8tstH8ozrijI5XLEx/+G69cT2y0f5eVlsLZ+Osd0WVkZrKysEBYWDiMjo3bLR35+PsaOHddux+tJqHLbjY0bNw7//Oc/OzobhBicWCzG1KlPRyrds2eP2rythHRljx8/Vpta4ssvv0RRUVEH5YiQtlNVVYWqqiqVZV999RVqa2s7KEfdh1wuR2ZmpsoUPv/4xz+Qnp7ervmQSqUoLCxUGRzzq6++Uvvc21rjstXd3R1ffvllu+YBaJjneMGCBe1+3J7A6PLlyywgIAAAcObMGcyePbuDs0QIIYQQQgghhDQP9bklhBBCCCGEENLlUeWWEEIIIYQQQkiXR5VbQgghhBBCCCFdHlVuCSGEEEIIIYR0eVS5JYQQQgghhBDS5VHllhBCCCGEEEJIl0eVW0IIIYQQQgghXR5VbgkhhBBCCCGEdHn/D9nFOE66mvpqAAAAAElFTkSuQmCC;" vertex="1" parent="1">
          <mxGeometry x="120" y="380" width="561" height="138.63" as="geometry" />
        </mxCell>
        <mxCell id="tkCvJaHhFPC2SJOJf_Uw-26" value="" style="group" vertex="1" connectable="0" parent="1">
          <mxGeometry x="120" y="240" width="440" height="40" as="geometry" />
        </mxCell>
        <mxCell id="tkCvJaHhFPC2SJOJf_Uw-15" value="0" style="whiteSpace=wrap;html=1;aspect=fixed;" vertex="1" parent="tkCvJaHhFPC2SJOJf_Uw-26">
          <mxGeometry width="40" height="40" as="geometry" />
        </mxCell>
        <mxCell id="tkCvJaHhFPC2SJOJf_Uw-16" value="0" style="whiteSpace=wrap;html=1;aspect=fixed;" vertex="1" parent="tkCvJaHhFPC2SJOJf_Uw-26">
          <mxGeometry x="40" width="40" height="40" as="geometry" />
        </mxCell>
        <mxCell id="tkCvJaHhFPC2SJOJf_Uw-17" value="0" style="whiteSpace=wrap;html=1;aspect=fixed;" vertex="1" parent="tkCvJaHhFPC2SJOJf_Uw-26">
          <mxGeometry x="80" width="40" height="40" as="geometry" />
        </mxCell>
        <mxCell id="tkCvJaHhFPC2SJOJf_Uw-18" value="0" style="whiteSpace=wrap;html=1;aspect=fixed;" vertex="1" parent="tkCvJaHhFPC2SJOJf_Uw-26">
          <mxGeometry x="200" width="40" height="40" as="geometry" />
        </mxCell>
        <mxCell id="tkCvJaHhFPC2SJOJf_Uw-19" value="1" style="whiteSpace=wrap;html=1;aspect=fixed;" vertex="1" parent="tkCvJaHhFPC2SJOJf_Uw-26">
          <mxGeometry x="160" width="40" height="40" as="geometry" />
        </mxCell>
        <mxCell id="tkCvJaHhFPC2SJOJf_Uw-20" value="0" style="whiteSpace=wrap;html=1;aspect=fixed;" vertex="1" parent="tkCvJaHhFPC2SJOJf_Uw-26">
          <mxGeometry x="120" width="40" height="40" as="geometry" />
        </mxCell>
        <mxCell id="tkCvJaHhFPC2SJOJf_Uw-21" value="0" style="whiteSpace=wrap;html=1;aspect=fixed;" vertex="1" parent="tkCvJaHhFPC2SJOJf_Uw-26">
          <mxGeometry x="360" width="40" height="40" as="geometry" />
        </mxCell>
        <mxCell id="tkCvJaHhFPC2SJOJf_Uw-22" value="0" style="whiteSpace=wrap;html=1;aspect=fixed;" vertex="1" parent="tkCvJaHhFPC2SJOJf_Uw-26">
          <mxGeometry x="320" width="40" height="40" as="geometry" />
        </mxCell>
        <mxCell id="tkCvJaHhFPC2SJOJf_Uw-23" value="0" style="whiteSpace=wrap;html=1;aspect=fixed;" vertex="1" parent="tkCvJaHhFPC2SJOJf_Uw-26">
          <mxGeometry x="280" width="40" height="40" as="geometry" />
        </mxCell>
        <mxCell id="tkCvJaHhFPC2SJOJf_Uw-24" value="0" style="whiteSpace=wrap;html=1;aspect=fixed;" vertex="1" parent="tkCvJaHhFPC2SJOJf_Uw-26">
          <mxGeometry x="240" width="40" height="40" as="geometry" />
        </mxCell>
        <mxCell id="tkCvJaHhFPC2SJOJf_Uw-25" value="0" style="whiteSpace=wrap;html=1;aspect=fixed;" vertex="1" parent="tkCvJaHhFPC2SJOJf_Uw-26">
          <mxGeometry x="400" width="40" height="40" as="geometry" />
        </mxCell>
        <mxCell id="tkCvJaHhFPC2SJOJf_Uw-27" value="" style="group" vertex="1" connectable="0" parent="1">
          <mxGeometry x="120" y="292" width="440" height="40" as="geometry" />
        </mxCell>
        <mxCell id="tkCvJaHhFPC2SJOJf_Uw-28" value="1" style="whiteSpace=wrap;html=1;aspect=fixed;" vertex="1" parent="tkCvJaHhFPC2SJOJf_Uw-27">
          <mxGeometry width="40" height="40" as="geometry" />
        </mxCell>
        <mxCell id="tkCvJaHhFPC2SJOJf_Uw-29" value="1" style="whiteSpace=wrap;html=1;aspect=fixed;" vertex="1" parent="tkCvJaHhFPC2SJOJf_Uw-27">
          <mxGeometry x="40" width="40" height="40" as="geometry" />
        </mxCell>
        <mxCell id="tkCvJaHhFPC2SJOJf_Uw-30" value="1" style="whiteSpace=wrap;html=1;aspect=fixed;" vertex="1" parent="tkCvJaHhFPC2SJOJf_Uw-27">
          <mxGeometry x="80" width="40" height="40" as="geometry" />
        </mxCell>
        <mxCell id="tkCvJaHhFPC2SJOJf_Uw-31" value="0" style="whiteSpace=wrap;html=1;aspect=fixed;" vertex="1" parent="tkCvJaHhFPC2SJOJf_Uw-27">
          <mxGeometry x="200" width="40" height="40" as="geometry" />
        </mxCell>
        <mxCell id="tkCvJaHhFPC2SJOJf_Uw-32" value="1" style="whiteSpace=wrap;html=1;aspect=fixed;" vertex="1" parent="tkCvJaHhFPC2SJOJf_Uw-27">
          <mxGeometry x="160" width="40" height="40" as="geometry" />
        </mxCell>
        <mxCell id="tkCvJaHhFPC2SJOJf_Uw-33" value="1" style="whiteSpace=wrap;html=1;aspect=fixed;" vertex="1" parent="tkCvJaHhFPC2SJOJf_Uw-27">
          <mxGeometry x="120" width="40" height="40" as="geometry" />
        </mxCell>
        <mxCell id="tkCvJaHhFPC2SJOJf_Uw-34" value="0" style="whiteSpace=wrap;html=1;aspect=fixed;" vertex="1" parent="tkCvJaHhFPC2SJOJf_Uw-27">
          <mxGeometry x="360" width="40" height="40" as="geometry" />
        </mxCell>
        <mxCell id="tkCvJaHhFPC2SJOJf_Uw-35" value="0" style="whiteSpace=wrap;html=1;aspect=fixed;" vertex="1" parent="tkCvJaHhFPC2SJOJf_Uw-27">
          <mxGeometry x="320" width="40" height="40" as="geometry" />
        </mxCell>
        <mxCell id="tkCvJaHhFPC2SJOJf_Uw-36" value="0" style="whiteSpace=wrap;html=1;aspect=fixed;" vertex="1" parent="tkCvJaHhFPC2SJOJf_Uw-27">
          <mxGeometry x="280" width="40" height="40" as="geometry" />
        </mxCell>
        <mxCell id="tkCvJaHhFPC2SJOJf_Uw-37" value="0" style="whiteSpace=wrap;html=1;aspect=fixed;" vertex="1" parent="tkCvJaHhFPC2SJOJf_Uw-27">
          <mxGeometry x="240" width="40" height="40" as="geometry" />
        </mxCell>
        <mxCell id="tkCvJaHhFPC2SJOJf_Uw-38" value="0" style="whiteSpace=wrap;html=1;aspect=fixed;" vertex="1" parent="tkCvJaHhFPC2SJOJf_Uw-27">
          <mxGeometry x="400" width="40" height="40" as="geometry" />
        </mxCell>
        <mxCell id="tkCvJaHhFPC2SJOJf_Uw-40" style="rounded=0;orthogonalLoop=1;jettySize=auto;html=1;exitX=1;exitY=0;exitDx=0;exitDy=0;entryX=0;entryY=1;entryDx=0;entryDy=0;endArrow=none;endFill=0;dashed=1;" edge="1" parent="1" source="tkCvJaHhFPC2SJOJf_Uw-25" target="tkCvJaHhFPC2SJOJf_Uw-5">
          <mxGeometry relative="1" as="geometry" />
        </mxCell>
        <mxCell id="tkCvJaHhFPC2SJOJf_Uw-41" style="edgeStyle=orthogonalEdgeStyle;rounded=0;orthogonalLoop=1;jettySize=auto;html=1;exitX=0;exitY=1;exitDx=0;exitDy=0;entryX=0.125;entryY=0.577;entryDx=0;entryDy=0;entryPerimeter=0;" edge="1" parent="1" source="tkCvJaHhFPC2SJOJf_Uw-28" target="tkCvJaHhFPC2SJOJf_Uw-14">
          <mxGeometry relative="1" as="geometry">
            <Array as="points">
              <mxPoint x="120" y="350" />
              <mxPoint x="190" y="350" />
            </Array>
          </mxGeometry>
        </mxCell>
        <mxCell id="tkCvJaHhFPC2SJOJf_Uw-43" style="edgeStyle=orthogonalEdgeStyle;rounded=0;orthogonalLoop=1;jettySize=auto;html=1;exitX=1;exitY=1;exitDx=0;exitDy=0;entryX=0.41;entryY=0.721;entryDx=0;entryDy=0;entryPerimeter=0;" edge="1" parent="1" source="tkCvJaHhFPC2SJOJf_Uw-38" target="tkCvJaHhFPC2SJOJf_Uw-14">
          <mxGeometry relative="1" as="geometry">
            <Array as="points">
              <mxPoint x="560" y="350" />
              <mxPoint x="350" y="350" />
            </Array>
          </mxGeometry>
        </mxCell>
        <mxCell id="tkCvJaHhFPC2SJOJf_Uw-44" value="ID config" style="text;html=1;align=center;verticalAlign=middle;whiteSpace=wrap;rounded=0;fontSize=16;fillColor=default;fillStyle=solid;gradientColor=none;" vertex="1" parent="1">
          <mxGeometry x="30" y="245" width="80" height="30" as="geometry" />
        </mxCell>
        <mxCell id="tkCvJaHhFPC2SJOJf_Uw-45" value="Mask config" style="text;html=1;align=center;verticalAlign=middle;whiteSpace=wrap;rounded=0;fontSize=16;fillColor=default;fillStyle=solid;gradientColor=none;" vertex="1" parent="1">
          <mxGeometry x="20" y="292" width="90" height="30" as="geometry" />
        </mxCell>
        <mxCell id="tkCvJaHhFPC2SJOJf_Uw-46" value="0x040" style="text;html=1;align=center;verticalAlign=middle;whiteSpace=wrap;rounded=0;fontSize=16;fillColor=default;fillStyle=solid;gradientColor=none;" vertex="1" parent="1">
          <mxGeometry x="570" y="245" width="80" height="30" as="geometry" />
        </mxCell>
        <mxCell id="tkCvJaHhFPC2SJOJf_Uw-47" value="0x7C0" style="text;html=1;align=center;verticalAlign=middle;whiteSpace=wrap;rounded=0;fontSize=16;fillColor=default;fillStyle=solid;gradientColor=none;" vertex="1" parent="1">
          <mxGeometry x="570" y="297" width="80" height="30" as="geometry" />
        </mxCell>
      </root>
    </mxGraphModel>
  </diagram>
</mxfile>
